<svg xmlns="http://www.w3.org/2000/svg" width="365" height="564" version="1.1" id="svg1499"><path id="Ellipse_2_copy_15" data-name="Ellipse 2 copy 15" d="M5 4a3 3 0 11-3 3 3 3 0 013-3zm31 0a3 3 0 11-3 3 3 3 0 013-3zm31 0a3 3 0 11-3 3 3 3 0 013-3zm31 0a3 3 0 11-3 3 3 3 0 013-3zm31 0a3 3 0 11-3 3 3 3 0 013-3zm31 0a3 3 0 11-3 3 3 3 0 013-3zm31 0a3 3 0 11-3 3 3 3 0 013-3zm31 0a3 3 0 11-3 3 3 3 0 013-3zm31 0a3 3 0 11-3 3 3 3 0 013-3zm31 0a3 3 0 11-3 3 3 3 0 013-3zm31 0a3 3 0 11-3 3 3 3 0 013-3zm31 0a3 3 0 11-3 3 3 3 0 013-3zM5 45a3 3 0 11-3 3 3 3 0 013-3zm31 0a3 3 0 11-3 3 3 3 0 013-3zm31 0a3 3 0 11-3 3 3 3 0 013-3zm31 0a3 3 0 11-3 3 3 3 0 013-3zm31 0a3 3 0 11-3 3 3 3 0 013-3zm31 0a3 3 0 11-3 3 3 3 0 013-3zm31 0a3 3 0 11-3 3 3 3 0 013-3zm31 0a3 3 0 11-3 3 3 3 0 013-3zm31 0a3 3 0 11-3 3 3 3 0 013-3zm31 0a3 3 0 11-3 3 3 3 0 013-3zm31 0a3 3 0 11-3 3 3 3 0 013-3zm31 0a3 3 0 11-3 3 3 3 0 013-3zM5 86a3 3 0 11-3 3 3 3 0 013-3zm31 0a3 3 0 11-3 3 3 3 0 013-3zm31 0a3 3 0 11-3 3 3 3 0 013-3zm31 0a3 3 0 11-3 3 3 3 0 013-3zm31 0a3 3 0 11-3 3 3 3 0 013-3zm31 0a3 3 0 11-3 3 3 3 0 013-3zm31 0a3 3 0 11-3 3 3 3 0 013-3zm31 0a3 3 0 11-3 3 3 3 0 013-3zm31 0a3 3 0 11-3 3 3 3 0 013-3zm31 0a3 3 0 11-3 3 3 3 0 013-3zm31 0a3 3 0 11-3 3 3 3 0 013-3zm31 0a3 3 0 11-3 3 3 3 0 013-3zM5 127a3 3 0 11-3 3 3 3 0 013-3zm31 0a3 3 0 11-3 3 3 3 0 013-3zm31 0a3 3 0 11-3 3 3 3 0 013-3zm31 0a3 3 0 11-3 3 3 3 0 013-3zm31 0a3 3 0 11-3 3 3 3 0 013-3zm31 0a3 3 0 11-3 3 3 3 0 013-3zm31 0a3 3 0 11-3 3 3 3 0 013-3zm31 0a3 3 0 11-3 3 3 3 0 013-3zm31 0a3 3 0 11-3 3 3 3 0 013-3zm31 0a3 3 0 11-3 3 3 3 0 013-3zm31 0a3 3 0 11-3 3 3 3 0 013-3zm31 0a3 3 0 11-3 3 3 3 0 013-3zM5 168a3 3 0 11-3 3 3 3 0 013-3zm31 0a3 3 0 11-3 3 3 3 0 013-3zm31 0a3 3 0 11-3 3 3 3 0 013-3zm31 0a3 3 0 11-3 3 3 3 0 013-3zm31 0a3 3 0 11-3 3 3 3 0 013-3zm31 0a3 3 0 11-3 3 3 3 0 013-3zm31 0a3 3 0 11-3 3 3 3 0 013-3zm31 0a3 3 0 11-3 3 3 3 0 013-3zm31 0a3 3 0 11-3 3 3 3 0 013-3zm31 0a3 3 0 11-3 3 3 3 0 013-3zm31 0a3 3 0 11-3 3 3 3 0 013-3zm31 0a3 3 0 11-3 3 3 3 0 013-3zM5 209a3 3 0 11-3 3 3 3 0 013-3zm31 0a3 3 0 11-3 3 3 3 0 013-3zm31 0a3 3 0 11-3 3 3 3 0 013-3zm31 0a3 3 0 11-3 3 3 3 0 013-3zm31 0a3 3 0 11-3 3 3 3 0 013-3zm31 0a3 3 0 11-3 3 3 3 0 013-3zm31 0a3 3 0 11-3 3 3 3 0 013-3zm31 0a3 3 0 11-3 3 3 3 0 013-3zm31 0a3 3 0 11-3 3 3 3 0 013-3zm31 0a3 3 0 11-3 3 3 3 0 013-3zm31 0a3 3 0 11-3 3 3 3 0 013-3zm31 0a3 3 0 11-3 3 3 3 0 013-3zM5 250a3 3 0 11-3 3 3 3 0 013-3zm31 0a3 3 0 11-3 3 3 3 0 013-3zm31 0a3 3 0 11-3 3 3 3 0 013-3zm31 0a3 3 0 11-3 3 3 3 0 013-3zm31 0a3 3 0 11-3 3 3 3 0 013-3zm31 0a3 3 0 11-3 3 3 3 0 013-3zm31 0a3 3 0 11-3 3 3 3 0 013-3zm31 0a3 3 0 11-3 3 3 3 0 013-3zm31 0a3 3 0 11-3 3 3 3 0 013-3zm31 0a3 3 0 11-3 3 3 3 0 013-3zm31 0a3 3 0 11-3 3 3 3 0 013-3zm31 0a3 3 0 11-3 3 3 3 0 013-3zM5 25a3 3 0 11-3 3 3 3 0 013-3zm31 0a3 3 0 11-3 3 3 3 0 013-3zm31 0a3 3 0 11-3 3 3 3 0 013-3zm31 0a3 3 0 11-3 3 3 3 0 013-3zm31 0a3 3 0 11-3 3 3 3 0 013-3zm31 0a3 3 0 11-3 3 3 3 0 013-3zm31 0a3 3 0 11-3 3 3 3 0 013-3zm31 0a3 3 0 11-3 3 3 3 0 013-3zm31 0a3 3 0 11-3 3 3 3 0 013-3zm31 0a3 3 0 11-3 3 3 3 0 013-3zm31 0a3 3 0 11-3 3 3 3 0 013-3zm31 0a3 3 0 11-3 3 3 3 0 013-3zM5 66a3 3 0 11-3 3 3 3 0 013-3zm31 0a3 3 0 11-3 3 3 3 0 013-3zm31 0a3 3 0 11-3 3 3 3 0 013-3zm31 0a3 3 0 11-3 3 3 3 0 013-3zm31 0a3 3 0 11-3 3 3 3 0 013-3zm31 0a3 3 0 11-3 3 3 3 0 013-3zm31 0a3 3 0 11-3 3 3 3 0 013-3zm31 0a3 3 0 11-3 3 3 3 0 013-3zm31 0a3 3 0 11-3 3 3 3 0 013-3zm31 0a3 3 0 11-3 3 3 3 0 013-3zm31 0a3 3 0 11-3 3 3 3 0 013-3zm31 0a3 3 0 11-3 3 3 3 0 013-3zM5 107a3 3 0 11-3 3 3 3 0 013-3zm31 0a3 3 0 11-3 3 3 3 0 013-3zm31 0a3 3 0 11-3 3 3 3 0 013-3zm31 0a3 3 0 11-3 3 3 3 0 013-3zm31 0a3 3 0 11-3 3 3 3 0 013-3zm31 0a3 3 0 11-3 3 3 3 0 013-3zm31 0a3 3 0 11-3 3 3 3 0 013-3zm31 0a3 3 0 11-3 3 3 3 0 013-3zm31 0a3 3 0 11-3 3 3 3 0 013-3zm31 0a3 3 0 11-3 3 3 3 0 013-3zm31 0a3 3 0 11-3 3 3 3 0 013-3zm31 0a3 3 0 11-3 3 3 3 0 013-3zM5 148a3 3 0 11-3 3 3 3 0 013-3zm31 0a3 3 0 11-3 3 3 3 0 013-3zm31 0a3 3 0 11-3 3 3 3 0 013-3zm31 0a3 3 0 11-3 3 3 3 0 013-3zm31 0a3 3 0 11-3 3 3 3 0 013-3zm31 0a3 3 0 11-3 3 3 3 0 013-3zm31 0a3 3 0 11-3 3 3 3 0 013-3zm31 0a3 3 0 11-3 3 3 3 0 013-3zm31 0a3 3 0 11-3 3 3 3 0 013-3zm31 0a3 3 0 11-3 3 3 3 0 013-3zm31 0a3 3 0 11-3 3 3 3 0 013-3zm31 0a3 3 0 11-3 3 3 3 0 013-3zM5 189a3 3 0 11-3 3 3 3 0 013-3zm31 0a3 3 0 11-3 3 3 3 0 013-3zm31 0a3 3 0 11-3 3 3 3 0 013-3zm31 0a3 3 0 11-3 3 3 3 0 013-3zm31 0a3 3 0 11-3 3 3 3 0 013-3zm31 0a3 3 0 11-3 3 3 3 0 013-3zm31 0a3 3 0 11-3 3 3 3 0 013-3zm31 0a3 3 0 11-3 3 3 3 0 013-3zm31 0a3 3 0 11-3 3 3 3 0 013-3zm31 0a3 3 0 11-3 3 3 3 0 013-3zm31 0a3 3 0 11-3 3 3 3 0 013-3zm31 0a3 3 0 11-3 3 3 3 0 013-3zM5 230a3 3 0 11-3 3 3 3 0 013-3zm31 0a3 3 0 11-3 3 3 3 0 013-3zm31 0a3 3 0 11-3 3 3 3 0 013-3zm31 0a3 3 0 11-3 3 3 3 0 013-3zm31 0a3 3 0 11-3 3 3 3 0 013-3zm31 0a3 3 0 11-3 3 3 3 0 013-3zm31 0a3 3 0 11-3 3 3 3 0 013-3zm31 0a3 3 0 11-3 3 3 3 0 013-3zm31 0a3 3 0 11-3 3 3 3 0 013-3zm31 0a3 3 0 11-3 3 3 3 0 013-3zm31 0a3 3 0 11-3 3 3 3 0 013-3zm31 0a3 3 0 11-3 3 3 3 0 013-3zM5 271a3 3 0 11-3 3 3 3 0 013-3zm31 0a3 3 0 11-3 3 3 3 0 013-3zm31 0a3 3 0 11-3 3 3 3 0 013-3zm31 0a3 3 0 11-3 3 3 3 0 013-3zm31 0a3 3 0 11-3 3 3 3 0 013-3zm31 0a3 3 0 11-3 3 3 3 0 013-3zm31 0a3 3 0 11-3 3 3 3 0 013-3zm31 0a3 3 0 11-3 3 3 3 0 013-3zm31 0a3 3 0 11-3 3 3 3 0 013-3zm31 0a3 3 0 11-3 3 3 3 0 013-3zm31 0a3 3 0 11-3 3 3 3 0 013-3zm31 0a3 3 0 11-3 3 3 3 0 013-3zM19 4a3 3 0 11-3 3 3 3 0 013-3zm31 0a3 3 0 11-3 3 3 3 0 013-3zm31 0a3 3 0 11-3 3 3 3 0 013-3zm31 0a3 3 0 11-3 3 3 3 0 013-3zm31 0a3 3 0 11-3 3 3 3 0 013-3zm31 0a3 3 0 11-3 3 3 3 0 013-3zm31 0a3 3 0 11-3 3 3 3 0 013-3zm31 0a3 3 0 11-3 3 3 3 0 013-3zm31 0a3 3 0 11-3 3 3 3 0 013-3zm31 0a3 3 0 11-3 3 3 3 0 013-3zm31 0a3 3 0 11-3 3 3 3 0 013-3zm31 0a3 3 0 11-3 3 3 3 0 013-3zM19 45a3 3 0 11-3 3 3 3 0 013-3zm31 0a3 3 0 11-3 3 3 3 0 013-3zm31 0a3 3 0 11-3 3 3 3 0 013-3zm31 0a3 3 0 11-3 3 3 3 0 013-3zm31 0a3 3 0 11-3 3 3 3 0 013-3zm31 0a3 3 0 11-3 3 3 3 0 013-3zm31 0a3 3 0 11-3 3 3 3 0 013-3zm31 0a3 3 0 11-3 3 3 3 0 013-3zm31 0a3 3 0 11-3 3 3 3 0 013-3zm31 0a3 3 0 11-3 3 3 3 0 013-3zm31 0a3 3 0 11-3 3 3 3 0 013-3zm31 0a3 3 0 11-3 3 3 3 0 013-3zM19 86a3 3 0 11-3 3 3 3 0 013-3zm31 0a3 3 0 11-3 3 3 3 0 013-3zm31 0a3 3 0 11-3 3 3 3 0 013-3zm31 0a3 3 0 11-3 3 3 3 0 013-3zm31 0a3 3 0 11-3 3 3 3 0 013-3zm31 0a3 3 0 11-3 3 3 3 0 013-3zm31 0a3 3 0 11-3 3 3 3 0 013-3zm31 0a3 3 0 11-3 3 3 3 0 013-3zm31 0a3 3 0 11-3 3 3 3 0 013-3zm31 0a3 3 0 11-3 3 3 3 0 013-3zm31 0a3 3 0 11-3 3 3 3 0 013-3zm31 0a3 3 0 11-3 3 3 3 0 013-3zM19 127a3 3 0 11-3 3 3 3 0 013-3zm31 0a3 3 0 11-3 3 3 3 0 013-3zm31 0a3 3 0 11-3 3 3 3 0 013-3zm31 0a3 3 0 11-3 3 3 3 0 013-3zm31 0a3 3 0 11-3 3 3 3 0 013-3zm31 0a3 3 0 11-3 3 3 3 0 013-3zm31 0a3 3 0 11-3 3 3 3 0 013-3zm31 0a3 3 0 11-3 3 3 3 0 013-3zm31 0a3 3 0 11-3 3 3 3 0 013-3zm31 0a3 3 0 11-3 3 3 3 0 013-3zm31 0a3 3 0 11-3 3 3 3 0 013-3zm31 0a3 3 0 11-3 3 3 3 0 013-3zM19 168a3 3 0 11-3 3 3 3 0 013-3zm31 0a3 3 0 11-3 3 3 3 0 013-3zm31 0a3 3 0 11-3 3 3 3 0 013-3zm31 0a3 3 0 11-3 3 3 3 0 013-3zm31 0a3 3 0 11-3 3 3 3 0 013-3zm31 0a3 3 0 11-3 3 3 3 0 013-3zm31 0a3 3 0 11-3 3 3 3 0 013-3zm31 0a3 3 0 11-3 3 3 3 0 013-3zm31 0a3 3 0 11-3 3 3 3 0 013-3zm31 0a3 3 0 11-3 3 3 3 0 013-3zm31 0a3 3 0 11-3 3 3 3 0 013-3zm31 0a3 3 0 11-3 3 3 3 0 013-3zM19 209a3 3 0 11-3 3 3 3 0 013-3zm31 0a3 3 0 11-3 3 3 3 0 013-3zm31 0a3 3 0 11-3 3 3 3 0 013-3zm31 0a3 3 0 11-3 3 3 3 0 013-3zm31 0a3 3 0 11-3 3 3 3 0 013-3zm31 0a3 3 0 11-3 3 3 3 0 013-3zm31 0a3 3 0 11-3 3 3 3 0 013-3zm31 0a3 3 0 11-3 3 3 3 0 013-3zm31 0a3 3 0 11-3 3 3 3 0 013-3zm31 0a3 3 0 11-3 3 3 3 0 013-3zm31 0a3 3 0 11-3 3 3 3 0 013-3zm31 0a3 3 0 11-3 3 3 3 0 013-3zM19 250a3 3 0 11-3 3 3 3 0 013-3zm31 0a3 3 0 11-3 3 3 3 0 013-3zm31 0a3 3 0 11-3 3 3 3 0 013-3zm31 0a3 3 0 11-3 3 3 3 0 013-3zm31 0a3 3 0 11-3 3 3 3 0 013-3zm31 0a3 3 0 11-3 3 3 3 0 013-3zm31 0a3 3 0 11-3 3 3 3 0 013-3zm31 0a3 3 0 11-3 3 3 3 0 013-3zm31 0a3 3 0 11-3 3 3 3 0 013-3zm31 0a3 3 0 11-3 3 3 3 0 013-3zm31 0a3 3 0 11-3 3 3 3 0 013-3zm31 0a3 3 0 11-3 3 3 3 0 013-3zM19 25a3 3 0 11-3 3 3 3 0 013-3zm31 0a3 3 0 11-3 3 3 3 0 013-3zm31 0a3 3 0 11-3 3 3 3 0 013-3zm31 0a3 3 0 11-3 3 3 3 0 013-3zm31 0a3 3 0 11-3 3 3 3 0 013-3zm31 0a3 3 0 11-3 3 3 3 0 013-3zm31 0a3 3 0 11-3 3 3 3 0 013-3zm31 0a3 3 0 11-3 3 3 3 0 013-3zm31 0a3 3 0 11-3 3 3 3 0 013-3zm31 0a3 3 0 11-3 3 3 3 0 013-3zm31 0a3 3 0 11-3 3 3 3 0 013-3zm31 0a3 3 0 11-3 3 3 3 0 013-3zM19 66a3 3 0 11-3 3 3 3 0 013-3zm31 0a3 3 0 11-3 3 3 3 0 013-3zm31 0a3 3 0 11-3 3 3 3 0 013-3zm31 0a3 3 0 11-3 3 3 3 0 013-3zm31 0a3 3 0 11-3 3 3 3 0 013-3zm31 0a3 3 0 11-3 3 3 3 0 013-3zm31 0a3 3 0 11-3 3 3 3 0 013-3zm31 0a3 3 0 11-3 3 3 3 0 013-3zm31 0a3 3 0 11-3 3 3 3 0 013-3zm31 0a3 3 0 11-3 3 3 3 0 013-3zm31 0a3 3 0 11-3 3 3 3 0 013-3zm31 0a3 3 0 11-3 3 3 3 0 013-3zM19 107a3 3 0 11-3 3 3 3 0 013-3zm31 0a3 3 0 11-3 3 3 3 0 013-3zm31 0a3 3 0 11-3 3 3 3 0 013-3zm31 0a3 3 0 11-3 3 3 3 0 013-3zm31 0a3 3 0 11-3 3 3 3 0 013-3zm31 0a3 3 0 11-3 3 3 3 0 013-3zm31 0a3 3 0 11-3 3 3 3 0 013-3zm31 0a3 3 0 11-3 3 3 3 0 013-3zm31 0a3 3 0 11-3 3 3 3 0 013-3zm31 0a3 3 0 11-3 3 3 3 0 013-3zm31 0a3 3 0 11-3 3 3 3 0 013-3zm31 0a3 3 0 11-3 3 3 3 0 013-3zM19 148a3 3 0 11-3 3 3 3 0 013-3zm31 0a3 3 0 11-3 3 3 3 0 013-3zm31 0a3 3 0 11-3 3 3 3 0 013-3zm31 0a3 3 0 11-3 3 3 3 0 013-3zm31 0a3 3 0 11-3 3 3 3 0 013-3zm31 0a3 3 0 11-3 3 3 3 0 013-3zm31 0a3 3 0 11-3 3 3 3 0 013-3zm31 0a3 3 0 11-3 3 3 3 0 013-3zm31 0a3 3 0 11-3 3 3 3 0 013-3zm31 0a3 3 0 11-3 3 3 3 0 013-3zm31 0a3 3 0 11-3 3 3 3 0 013-3zm31 0a3 3 0 11-3 3 3 3 0 013-3zM19 189a3 3 0 11-3 3 3 3 0 013-3zm31 0a3 3 0 11-3 3 3 3 0 013-3zm31 0a3 3 0 11-3 3 3 3 0 013-3zm31 0a3 3 0 11-3 3 3 3 0 013-3zm31 0a3 3 0 11-3 3 3 3 0 013-3zm31 0a3 3 0 11-3 3 3 3 0 013-3zm31 0a3 3 0 11-3 3 3 3 0 013-3zm31 0a3 3 0 11-3 3 3 3 0 013-3zm31 0a3 3 0 11-3 3 3 3 0 013-3zm31 0a3 3 0 11-3 3 3 3 0 013-3zm31 0a3 3 0 11-3 3 3 3 0 013-3zm31 0a3 3 0 11-3 3 3 3 0 013-3zM19 230a3 3 0 11-3 3 3 3 0 013-3zm31 0a3 3 0 11-3 3 3 3 0 013-3zm31 0a3 3 0 11-3 3 3 3 0 013-3zm31 0a3 3 0 11-3 3 3 3 0 013-3zm31 0a3 3 0 11-3 3 3 3 0 013-3zm31 0a3 3 0 11-3 3 3 3 0 013-3zm31 0a3 3 0 11-3 3 3 3 0 013-3zm31 0a3 3 0 11-3 3 3 3 0 013-3zm31 0a3 3 0 11-3 3 3 3 0 013-3zm31 0a3 3 0 11-3 3 3 3 0 013-3zm31 0a3 3 0 11-3 3 3 3 0 013-3zm31 0a3 3 0 11-3 3 3 3 0 013-3zM19 271a3 3 0 11-3 3 3 3 0 013-3zm31 0a3 3 0 11-3 3 3 3 0 013-3zm31 0a3 3 0 11-3 3 3 3 0 013-3zm31 0a3 3 0 11-3 3 3 3 0 013-3zm31 0a3 3 0 11-3 3 3 3 0 013-3zm31 0a3 3 0 11-3 3 3 3 0 013-3zm31 0a3 3 0 11-3 3 3 3 0 013-3zm31 0a3 3 0 11-3 3 3 3 0 013-3zm31 0a3 3 0 11-3 3 3 3 0 013-3zm31 0a3 3 0 11-3 3 3 3 0 013-3zm31 0a3 3 0 11-3 3 3 3 0 013-3zm31 0a3 3 0 11-3 3 3 3 0 013-3zM5 289a3 3 0 11-3 3 3 3 0 013-3zm31 0a3 3 0 11-3 3 3 3 0 013-3zm31 0a3 3 0 11-3 3 3 3 0 013-3zm31 0a3 3 0 11-3 3 3 3 0 013-3zm31 0a3 3 0 11-3 3 3 3 0 013-3zm31 0a3 3 0 11-3 3 3 3 0 013-3zm31 0a3 3 0 11-3 3 3 3 0 013-3zm31 0a3 3 0 11-3 3 3 3 0 013-3zm31 0a3 3 0 11-3 3 3 3 0 013-3zm31 0a3 3 0 11-3 3 3 3 0 013-3zm31 0a3 3 0 11-3 3 3 3 0 013-3zm31 0a3 3 0 11-3 3 3 3 0 013-3zM5 330a3 3 0 11-3 3 3 3 0 013-3zm31 0a3 3 0 11-3 3 3 3 0 013-3zm31 0a3 3 0 11-3 3 3 3 0 013-3zm31 0a3 3 0 11-3 3 3 3 0 013-3zm31 0a3 3 0 11-3 3 3 3 0 013-3zm31 0a3 3 0 11-3 3 3 3 0 013-3zm31 0a3 3 0 11-3 3 3 3 0 013-3zm31 0a3 3 0 11-3 3 3 3 0 013-3zm31 0a3 3 0 11-3 3 3 3 0 013-3zm31 0a3 3 0 11-3 3 3 3 0 013-3zm31 0a3 3 0 11-3 3 3 3 0 013-3zm31 0a3 3 0 11-3 3 3 3 0 013-3zM5 371a3 3 0 11-3 3 3 3 0 013-3zm31 0a3 3 0 11-3 3 3 3 0 013-3zm31 0a3 3 0 11-3 3 3 3 0 013-3zm31 0a3 3 0 11-3 3 3 3 0 013-3zm31 0a3 3 0 11-3 3 3 3 0 013-3zm31 0a3 3 0 11-3 3 3 3 0 013-3zm31 0a3 3 0 11-3 3 3 3 0 013-3zm31 0a3 3 0 11-3 3 3 3 0 013-3zm31 0a3 3 0 11-3 3 3 3 0 013-3zm31 0a3 3 0 11-3 3 3 3 0 013-3zm31 0a3 3 0 11-3 3 3 3 0 013-3zm31 0a3 3 0 11-3 3 3 3 0 013-3zM5 412a3 3 0 11-3 3 3 3 0 013-3zm31 0a3 3 0 11-3 3 3 3 0 013-3zm31 0a3 3 0 11-3 3 3 3 0 013-3zm31 0a3 3 0 11-3 3 3 3 0 013-3zm31 0a3 3 0 11-3 3 3 3 0 013-3zm31 0a3 3 0 11-3 3 3 3 0 013-3zm31 0a3 3 0 11-3 3 3 3 0 013-3zm31 0a3 3 0 11-3 3 3 3 0 013-3zm31 0a3 3 0 11-3 3 3 3 0 013-3zm31 0a3 3 0 11-3 3 3 3 0 013-3zm31 0a3 3 0 11-3 3 3 3 0 013-3zm31 0a3 3 0 11-3 3 3 3 0 013-3zM5 453a3 3 0 11-3 3 3 3 0 013-3zm31 0a3 3 0 11-3 3 3 3 0 013-3zm31 0a3 3 0 11-3 3 3 3 0 013-3zm31 0a3 3 0 11-3 3 3 3 0 013-3zm31 0a3 3 0 11-3 3 3 3 0 013-3zm31 0a3 3 0 11-3 3 3 3 0 013-3zm31 0a3 3 0 11-3 3 3 3 0 013-3zm31 0a3 3 0 11-3 3 3 3 0 013-3zm31 0a3 3 0 11-3 3 3 3 0 013-3zm31 0a3 3 0 11-3 3 3 3 0 013-3zm31 0a3 3 0 11-3 3 3 3 0 013-3zm31 0a3 3 0 11-3 3 3 3 0 013-3zM5 494a3 3 0 11-3 3 3 3 0 013-3zm31 0a3 3 0 11-3 3 3 3 0 013-3zm31 0a3 3 0 11-3 3 3 3 0 013-3zm31 0a3 3 0 11-3 3 3 3 0 013-3zm31 0a3 3 0 11-3 3 3 3 0 013-3zm31 0a3 3 0 11-3 3 3 3 0 013-3zm31 0a3 3 0 11-3 3 3 3 0 013-3zm31 0a3 3 0 11-3 3 3 3 0 013-3zm31 0a3 3 0 11-3 3 3 3 0 013-3zm31 0a3 3 0 11-3 3 3 3 0 013-3zm31 0a3 3 0 11-3 3 3 3 0 013-3zm31 0a3 3 0 11-3 3 3 3 0 013-3zM5 535a3 3 0 11-3 3 3 3 0 013-3zm31 0a3 3 0 11-3 3 3 3 0 013-3zm31 0a3 3 0 11-3 3 3 3 0 013-3zm31 0a3 3 0 11-3 3 3 3 0 013-3zm31 0a3 3 0 11-3 3 3 3 0 013-3zm31 0a3 3 0 11-3 3 3 3 0 013-3zm31 0a3 3 0 11-3 3 3 3 0 013-3zm31 0a3 3 0 11-3 3 3 3 0 013-3zm31 0a3 3 0 11-3 3 3 3 0 013-3zm31 0a3 3 0 11-3 3 3 3 0 013-3zm31 0a3 3 0 11-3 3 3 3 0 013-3zm31 0a3 3 0 11-3 3 3 3 0 013-3zM5 310a3 3 0 11-3 3 3 3 0 013-3zm31 0a3 3 0 11-3 3 3 3 0 013-3zm31 0a3 3 0 11-3 3 3 3 0 013-3zm31 0a3 3 0 11-3 3 3 3 0 013-3zm31 0a3 3 0 11-3 3 3 3 0 013-3zm31 0a3 3 0 11-3 3 3 3 0 013-3zm31 0a3 3 0 11-3 3 3 3 0 013-3zm31 0a3 3 0 11-3 3 3 3 0 013-3zm31 0a3 3 0 11-3 3 3 3 0 013-3zm31 0a3 3 0 11-3 3 3 3 0 013-3zm31 0a3 3 0 11-3 3 3 3 0 013-3zm31 0a3 3 0 11-3 3 3 3 0 013-3zM5 351a3 3 0 11-3 3 3 3 0 013-3zm31 0a3 3 0 11-3 3 3 3 0 013-3zm31 0a3 3 0 11-3 3 3 3 0 013-3zm31 0a3 3 0 11-3 3 3 3 0 013-3zm31 0a3 3 0 11-3 3 3 3 0 013-3zm31 0a3 3 0 11-3 3 3 3 0 013-3zm31 0a3 3 0 11-3 3 3 3 0 013-3zm31 0a3 3 0 11-3 3 3 3 0 013-3zm31 0a3 3 0 11-3 3 3 3 0 013-3zm31 0a3 3 0 11-3 3 3 3 0 013-3zm31 0a3 3 0 11-3 3 3 3 0 013-3zm31 0a3 3 0 11-3 3 3 3 0 013-3zM5 392a3 3 0 11-3 3 3 3 0 013-3zm31 0a3 3 0 11-3 3 3 3 0 013-3zm31 0a3 3 0 11-3 3 3 3 0 013-3zm31 0a3 3 0 11-3 3 3 3 0 013-3zm31 0a3 3 0 11-3 3 3 3 0 013-3zm31 0a3 3 0 11-3 3 3 3 0 013-3zm31 0a3 3 0 11-3 3 3 3 0 013-3zm31 0a3 3 0 11-3 3 3 3 0 013-3zm31 0a3 3 0 11-3 3 3 3 0 013-3zm31 0a3 3 0 11-3 3 3 3 0 013-3zm31 0a3 3 0 11-3 3 3 3 0 013-3zm31 0a3 3 0 11-3 3 3 3 0 013-3zM5 433a3 3 0 11-3 3 3 3 0 013-3zm31 0a3 3 0 11-3 3 3 3 0 013-3zm31 0a3 3 0 11-3 3 3 3 0 013-3zm31 0a3 3 0 11-3 3 3 3 0 013-3zm31 0a3 3 0 11-3 3 3 3 0 013-3zm31 0a3 3 0 11-3 3 3 3 0 013-3zm31 0a3 3 0 11-3 3 3 3 0 013-3zm31 0a3 3 0 11-3 3 3 3 0 013-3zm31 0a3 3 0 11-3 3 3 3 0 013-3zm31 0a3 3 0 11-3 3 3 3 0 013-3zm31 0a3 3 0 11-3 3 3 3 0 013-3zm31 0a3 3 0 11-3 3 3 3 0 013-3zM5 474a3 3 0 11-3 3 3 3 0 013-3zm31 0a3 3 0 11-3 3 3 3 0 013-3zm31 0a3 3 0 11-3 3 3 3 0 013-3zm31 0a3 3 0 11-3 3 3 3 0 013-3zm31 0a3 3 0 11-3 3 3 3 0 013-3zm31 0a3 3 0 11-3 3 3 3 0 013-3zm31 0a3 3 0 11-3 3 3 3 0 013-3zm31 0a3 3 0 11-3 3 3 3 0 013-3zm31 0a3 3 0 11-3 3 3 3 0 013-3zm31 0a3 3 0 11-3 3 3 3 0 013-3zm31 0a3 3 0 11-3 3 3 3 0 013-3zm31 0a3 3 0 11-3 3 3 3 0 013-3zM5 515a3 3 0 11-3 3 3 3 0 013-3zm31 0a3 3 0 11-3 3 3 3 0 013-3zm31 0a3 3 0 11-3 3 3 3 0 013-3zm31 0a3 3 0 11-3 3 3 3 0 013-3zm31 0a3 3 0 11-3 3 3 3 0 013-3zm31 0a3 3 0 11-3 3 3 3 0 013-3zm31 0a3 3 0 11-3 3 3 3 0 013-3zm31 0a3 3 0 11-3 3 3 3 0 013-3zm31 0a3 3 0 11-3 3 3 3 0 013-3zm31 0a3 3 0 11-3 3 3 3 0 013-3zm31 0a3 3 0 11-3 3 3 3 0 013-3zm31 0a3 3 0 11-3 3 3 3 0 013-3zM5 556a3 3 0 11-3 3 3 3 0 013-3zm31 0a3 3 0 11-3 3 3 3 0 013-3zm31 0a3 3 0 11-3 3 3 3 0 013-3zm31 0a3 3 0 11-3 3 3 3 0 013-3zm31 0a3 3 0 11-3 3 3 3 0 013-3zm31 0a3 3 0 11-3 3 3 3 0 013-3zm31 0a3 3 0 11-3 3 3 3 0 013-3zm31 0a3 3 0 11-3 3 3 3 0 013-3zm31 0a3 3 0 11-3 3 3 3 0 013-3zm31 0a3 3 0 11-3 3 3 3 0 013-3zm31 0a3 3 0 11-3 3 3 3 0 013-3zm31 0a3 3 0 11-3 3 3 3 0 013-3zM19 289a3 3 0 11-3 3 3 3 0 013-3zm31 0a3 3 0 11-3 3 3 3 0 013-3zm31 0a3 3 0 11-3 3 3 3 0 013-3zm31 0a3 3 0 11-3 3 3 3 0 013-3zm31 0a3 3 0 11-3 3 3 3 0 013-3zm31 0a3 3 0 11-3 3 3 3 0 013-3zm31 0a3 3 0 11-3 3 3 3 0 013-3zm31 0a3 3 0 11-3 3 3 3 0 013-3zm31 0a3 3 0 11-3 3 3 3 0 013-3zm31 0a3 3 0 11-3 3 3 3 0 013-3zm31 0a3 3 0 11-3 3 3 3 0 013-3zm31 0a3 3 0 11-3 3 3 3 0 013-3zM19 330a3 3 0 11-3 3 3 3 0 013-3zm31 0a3 3 0 11-3 3 3 3 0 013-3zm31 0a3 3 0 11-3 3 3 3 0 013-3zm31 0a3 3 0 11-3 3 3 3 0 013-3zm31 0a3 3 0 11-3 3 3 3 0 013-3zm31 0a3 3 0 11-3 3 3 3 0 013-3zm31 0a3 3 0 11-3 3 3 3 0 013-3zm31 0a3 3 0 11-3 3 3 3 0 013-3zm31 0a3 3 0 11-3 3 3 3 0 013-3zm31 0a3 3 0 11-3 3 3 3 0 013-3zm31 0a3 3 0 11-3 3 3 3 0 013-3zm31 0a3 3 0 11-3 3 3 3 0 013-3zM19 371a3 3 0 11-3 3 3 3 0 013-3zm31 0a3 3 0 11-3 3 3 3 0 013-3zm31 0a3 3 0 11-3 3 3 3 0 013-3zm31 0a3 3 0 11-3 3 3 3 0 013-3zm31 0a3 3 0 11-3 3 3 3 0 013-3zm31 0a3 3 0 11-3 3 3 3 0 013-3zm31 0a3 3 0 11-3 3 3 3 0 013-3zm31 0a3 3 0 11-3 3 3 3 0 013-3zm31 0a3 3 0 11-3 3 3 3 0 013-3zm31 0a3 3 0 11-3 3 3 3 0 013-3zm31 0a3 3 0 11-3 3 3 3 0 013-3zm31 0a3 3 0 11-3 3 3 3 0 013-3zM19 412a3 3 0 11-3 3 3 3 0 013-3zm31 0a3 3 0 11-3 3 3 3 0 013-3zm31 0a3 3 0 11-3 3 3 3 0 013-3zm31 0a3 3 0 11-3 3 3 3 0 013-3zm31 0a3 3 0 11-3 3 3 3 0 013-3zm31 0a3 3 0 11-3 3 3 3 0 013-3zm31 0a3 3 0 11-3 3 3 3 0 013-3zm31 0a3 3 0 11-3 3 3 3 0 013-3zm31 0a3 3 0 11-3 3 3 3 0 013-3zm31 0a3 3 0 11-3 3 3 3 0 013-3zm31 0a3 3 0 11-3 3 3 3 0 013-3zm31 0a3 3 0 11-3 3 3 3 0 013-3zM19 453a3 3 0 11-3 3 3 3 0 013-3zm31 0a3 3 0 11-3 3 3 3 0 013-3zm31 0a3 3 0 11-3 3 3 3 0 013-3zm31 0a3 3 0 11-3 3 3 3 0 013-3zm31 0a3 3 0 11-3 3 3 3 0 013-3zm31 0a3 3 0 11-3 3 3 3 0 013-3zm31 0a3 3 0 11-3 3 3 3 0 013-3zm31 0a3 3 0 11-3 3 3 3 0 013-3zm31 0a3 3 0 11-3 3 3 3 0 013-3zm31 0a3 3 0 11-3 3 3 3 0 013-3zm31 0a3 3 0 11-3 3 3 3 0 013-3zm31 0a3 3 0 11-3 3 3 3 0 013-3zM19 494a3 3 0 11-3 3 3 3 0 013-3zm31 0a3 3 0 11-3 3 3 3 0 013-3zm31 0a3 3 0 11-3 3 3 3 0 013-3zm31 0a3 3 0 11-3 3 3 3 0 013-3zm31 0a3 3 0 11-3 3 3 3 0 013-3zm31 0a3 3 0 11-3 3 3 3 0 013-3zm31 0a3 3 0 11-3 3 3 3 0 013-3zm31 0a3 3 0 11-3 3 3 3 0 013-3zm31 0a3 3 0 11-3 3 3 3 0 013-3zm31 0a3 3 0 11-3 3 3 3 0 013-3zm31 0a3 3 0 11-3 3 3 3 0 013-3zm31 0a3 3 0 11-3 3 3 3 0 013-3zM19 535a3 3 0 11-3 3 3 3 0 013-3zm31 0a3 3 0 11-3 3 3 3 0 013-3zm31 0a3 3 0 11-3 3 3 3 0 013-3zm31 0a3 3 0 11-3 3 3 3 0 013-3zm31 0a3 3 0 11-3 3 3 3 0 013-3zm31 0a3 3 0 11-3 3 3 3 0 013-3zm31 0a3 3 0 11-3 3 3 3 0 013-3zm31 0a3 3 0 11-3 3 3 3 0 013-3zm31 0a3 3 0 11-3 3 3 3 0 013-3zm31 0a3 3 0 11-3 3 3 3 0 013-3zm31 0a3 3 0 11-3 3 3 3 0 013-3zm31 0a3 3 0 11-3 3 3 3 0 013-3zM19 310a3 3 0 11-3 3 3 3 0 013-3zm31 0a3 3 0 11-3 3 3 3 0 013-3zm31 0a3 3 0 11-3 3 3 3 0 013-3zm31 0a3 3 0 11-3 3 3 3 0 013-3zm31 0a3 3 0 11-3 3 3 3 0 013-3zm31 0a3 3 0 11-3 3 3 3 0 013-3zm31 0a3 3 0 11-3 3 3 3 0 013-3zm31 0a3 3 0 11-3 3 3 3 0 013-3zm31 0a3 3 0 11-3 3 3 3 0 013-3zm31 0a3 3 0 11-3 3 3 3 0 013-3zm31 0a3 3 0 11-3 3 3 3 0 013-3zm31 0a3 3 0 11-3 3 3 3 0 013-3zM19 351a3 3 0 11-3 3 3 3 0 013-3zm31 0a3 3 0 11-3 3 3 3 0 013-3zm31 0a3 3 0 11-3 3 3 3 0 013-3zm31 0a3 3 0 11-3 3 3 3 0 013-3zm31 0a3 3 0 11-3 3 3 3 0 013-3zm31 0a3 3 0 11-3 3 3 3 0 013-3zm31 0a3 3 0 11-3 3 3 3 0 013-3zm31 0a3 3 0 11-3 3 3 3 0 013-3zm31 0a3 3 0 11-3 3 3 3 0 013-3zm31 0a3 3 0 11-3 3 3 3 0 013-3zm31 0a3 3 0 11-3 3 3 3 0 013-3zm31 0a3 3 0 11-3 3 3 3 0 013-3zM19 392a3 3 0 11-3 3 3 3 0 013-3zm31 0a3 3 0 11-3 3 3 3 0 013-3zm31 0a3 3 0 11-3 3 3 3 0 013-3zm31 0a3 3 0 11-3 3 3 3 0 013-3zm31 0a3 3 0 11-3 3 3 3 0 013-3zm31 0a3 3 0 11-3 3 3 3 0 013-3zm31 0a3 3 0 11-3 3 3 3 0 013-3zm31 0a3 3 0 11-3 3 3 3 0 013-3zm31 0a3 3 0 11-3 3 3 3 0 013-3zm31 0a3 3 0 11-3 3 3 3 0 013-3zm31 0a3 3 0 11-3 3 3 3 0 013-3zm31 0a3 3 0 11-3 3 3 3 0 013-3zM19 433a3 3 0 11-3 3 3 3 0 013-3zm31 0a3 3 0 11-3 3 3 3 0 013-3zm31 0a3 3 0 11-3 3 3 3 0 013-3zm31 0a3 3 0 11-3 3 3 3 0 013-3zm31 0a3 3 0 11-3 3 3 3 0 013-3zm31 0a3 3 0 11-3 3 3 3 0 013-3zm31 0a3 3 0 11-3 3 3 3 0 013-3zm31 0a3 3 0 11-3 3 3 3 0 013-3zm31 0a3 3 0 11-3 3 3 3 0 013-3zm31 0a3 3 0 11-3 3 3 3 0 013-3zm31 0a3 3 0 11-3 3 3 3 0 013-3zm31 0a3 3 0 11-3 3 3 3 0 013-3zM19 474a3 3 0 11-3 3 3 3 0 013-3zm31 0a3 3 0 11-3 3 3 3 0 013-3zm31 0a3 3 0 11-3 3 3 3 0 013-3zm31 0a3 3 0 11-3 3 3 3 0 013-3zm31 0a3 3 0 11-3 3 3 3 0 013-3zm31 0a3 3 0 11-3 3 3 3 0 013-3zm31 0a3 3 0 11-3 3 3 3 0 013-3zm31 0a3 3 0 11-3 3 3 3 0 013-3zm31 0a3 3 0 11-3 3 3 3 0 013-3zm31 0a3 3 0 11-3 3 3 3 0 013-3zm31 0a3 3 0 11-3 3 3 3 0 013-3zm31 0a3 3 0 11-3 3 3 3 0 013-3zM19 515a3 3 0 11-3 3 3 3 0 013-3zm31 0a3 3 0 11-3 3 3 3 0 013-3zm31 0a3 3 0 11-3 3 3 3 0 013-3zm31 0a3 3 0 11-3 3 3 3 0 013-3zm31 0a3 3 0 11-3 3 3 3 0 013-3zm31 0a3 3 0 11-3 3 3 3 0 013-3zm31 0a3 3 0 11-3 3 3 3 0 013-3zm31 0a3 3 0 11-3 3 3 3 0 013-3zm31 0a3 3 0 11-3 3 3 3 0 013-3zm31 0a3 3 0 11-3 3 3 3 0 013-3zm31 0a3 3 0 11-3 3 3 3 0 013-3zm31 0a3 3 0 11-3 3 3 3 0 013-3zM19 556a3 3 0 11-3 3 3 3 0 013-3zm31 0a3 3 0 11-3 3 3 3 0 013-3zm31 0a3 3 0 11-3 3 3 3 0 013-3zm31 0a3 3 0 11-3 3 3 3 0 013-3zm31 0a3 3 0 11-3 3 3 3 0 013-3zm31 0a3 3 0 11-3 3 3 3 0 013-3zm31 0a3 3 0 11-3 3 3 3 0 013-3zm31 0a3 3 0 11-3 3 3 3 0 013-3zm31 0a3 3 0 11-3 3 3 3 0 013-3zm31 0a3 3 0 11-3 3 3 3 0 013-3zm31 0a3 3 0 11-3 3 3 3 0 013-3zm31 0a3 3 0 11-3 3 3 3 0 013-3z" fill="#eaeaea" fill-rule="evenodd"/></svg>