<svg xmlns="http://www.w3.org/2000/svg" id="Layer_1" version="1.1" xml:space="preserve" width="22" height="22"><g id="g846"><path d="M12.835 21.804c-.108.004-.176.013-.245.013-1.467 0-2.929-.005-4.396.004-.205 0-.261-.056-.261-.262.004-3.413.004-6.831.004-10.245v-.296H5.574V7.373h.232c.643 0 1.286-.004 1.93.004.162 0 .205-.047.205-.206-.008-.956-.008-1.917 0-2.873.004-.669.112-1.32.42-1.925.442-.854 1.141-1.407 2.025-1.75.72-.283 1.48-.386 2.243-.399 1.243-.017 2.487-.009 3.73-.013.116 0 .21-.004.21.159-.003 1.18-.003 2.358-.003 3.538 0 .013-.005.026-.022.081h-.236c-.772 0-1.544-.004-2.315 0-.446 0-.807.18-1.034.57a.825.825 0 00-.112.404c-.012.729 0 1.458-.008 2.187 0 .171.052.219.219.219 1.072-.009 2.144-.005 3.216-.005h.313c-.15 1.227-.295 2.428-.446 3.641h-3.306v10.799z" id="path844" stroke-width=".043"/></g></svg>