<svg xmlns="http://www.w3.org/2000/svg" width="180" height="85" viewBox="0 0 47.625 22.49" version="1.1" id="svg4588"><defs id="defs4582"><style id="style867"/><style id="style35"/></defs><g id="layer1" transform="translate(0 -274.51)"><path d="M10.423 279.058a3.28 3.28 0 00-.422 1.006c-.105.428-.144.924-.465 1.262-.32.339-.923.518-1.4.734-.476.216-.852.487-1.027.69a.905.905 0 00-.22.566 2.12 2.12 0 00.033.599c.048.275.15.696.515 1.34.364.644.995 1.523.742 1.938-.254.415-1.39.366-1.96.341-.568-.025-.568-.025-.653.186-.084.212-.253.633-.288.851-.035.219.063.233.548.219a33.995 33.995 0 001.826-.102c.467-.046.546-.11.56.17.014.28-.029.902-.057 1.29a4.118 4.118 0 01-.14.921c-.1.38-.282.985-.413 1.366-.13.381-.22.561-.288.94-.068.379-.118.964-.144 1.509-.025.544-.025 1.075.125 1.395.15.32.486.508 1.093.555.607.048 1.54-.038 2.532-.02.99.017 2.059.136 2.588-.151.529-.287.519-.98.435-1.721a24.254 24.254 0 00-.32-1.93c-.079-.395-.079-.395-.143-.631a31.891 31.891 0 01-.312-1.23c-.12-.52-.23-1.089-.258-1.599-.027-.51.03-.96.057-1.185.028-.224.028-.224.448-.342.42-.117 1.262-.353 1.804-.486s.784-.164.926-.287c.141-.123.182-.338.175-.53-.007-.191-.06-.359-.523-.348-.461.012-1.33.201-1.794.258-.465.057-.525-.018-.47-.288.054-.27.222-.734.375-1.292s.296-1.24.203-1.785a1.72 1.72 0 00-.883-1.228c-.462-.258-1.059-.348-1.443-.699-.385-.35-.558-.96-.682-1.449-.124-.49-.2-.859-.302-1-.102-.141-.23-.055-.378.167z" id="path4570" display="inline" fill="#e0c4b1" fill-opacity="1" stroke="#e0c4b1" stroke-width=".265" stroke-linecap="butt" stroke-linejoin="miter" stroke-opacity="1"/><path style="line-height:normal;font-variant-ligatures:normal;font-variant-position:normal;font-variant-caps:normal;font-variant-numeric:normal;font-variant-alternates:normal;font-feature-settings:normal;text-indent:0;text-align:start;text-decoration-line:none;text-decoration-style:solid;text-decoration-color:#000;text-transform:none;text-orientation:mixed;white-space:normal;shape-padding:0;isolation:auto;mix-blend-mode:normal;solid-color:#000;solid-opacity:1" d="M10.188 278.655l-.093.418c-.007.213-.152.71-.16.922l.352-.4.032-.038.415-.083.321.297-.214-.43a183.66 183.66 0 00-.011-.55l-.003-.128-.128-.002-.382-.005zm.255.268c.042 0 .083 0 .125.002l.006.311c-.047.01-.119-.021-.167-.012.005-.115-.293.09-.289-.024z" id="path4566" color="#000" font-style="normal" font-variant="normal" font-weight="400" font-stretch="normal" font-size="medium" font-family="sans-serif" text-decoration="none" letter-spacing="normal" word-spacing="normal" writing-mode="lr-tb" direction="ltr" dominant-baseline="auto" baseline-shift="baseline" text-anchor="start" clip-rule="nonzero" display="inline" overflow="visible" visibility="visible" opacity="1" color-interpolation="sRGB" color-interpolation-filters="linearRGB" vector-effect="none" fill="#e0c4b1" fill-opacity="1" fill-rule="nonzero" stroke="#e0c4b1" stroke-width=".265" stroke-linecap="butt" stroke-linejoin="miter" stroke-miterlimit="4" stroke-dasharray="none" stroke-dashoffset="0" stroke-opacity="1" color-rendering="auto" image-rendering="auto" shape-rendering="auto" text-rendering="auto"/><path id="path4554" d="M.294 280.293c.21-.249.727-.687 2.437-1.174 1.71-.487 4.617-1.025 6.723-1.36a56.169 56.169 0 014.638-.567c1.228-.1 2.377-.166 3.336-.25.959-.082 1.728-.181 2.659-.243.931-.062 2.026-.086 3.472-.096 1.446-.01 3.244-.006 3.972.16.728.166.385.493.213.657-.171.163-.171.163-.75.13a53.43 53.43 0 00-2.646-.104c-.915-.004-1.584.057-2.847.129-1.263.072-3.118.155-4.644.263a74.438 74.438 0 00-3.698.359 52.31 52.31 0 00-2.677.375c-.945.16-2.079.378-2.941.528-.863.15-1.453.23-2.046.318-.594.088-1.19.183-1.611.272-.421.09-.667.172-.92.243-.252.072-.51.131-.73.204-.22.072-.4.158-.608.277-.21.12-.446.272-.675.32a1.112 1.112 0 01-.607-.073c-.16-.06-.259-.12-.05-.368z" display="inline" fill="#e0c4b1" fill-opacity="1" stroke="#e0c4b1" stroke-width=".265" stroke-linecap="butt" stroke-linejoin="miter" stroke-opacity="1"/><g aria-label="S T Y L I S T" transform="matrix(.22614 0 0 .26228 1.328 278.263)" style="line-height:1.25;-inkscape-font-specification:'sans-serif, Normal';font-variant-ligatures:normal;font-variant-caps:normal;font-variant-numeric:normal;font-feature-settings:normal;text-align:start" id="flowRoot5240" font-style="normal" font-variant="normal" font-weight="400" font-stretch="normal" font-size="18.667" font-family="sans-serif" letter-spacing="0" word-spacing="0" writing-mode="lr-tb" text-anchor="start" fill="#000" fill-opacity="1" stroke="none"><path d="M79.618 64.456q0 .793-.373 1.568-.365.774-1.03 1.312-.73.583-1.705.911-.966.329-2.333.329-1.467 0-2.643-.274-1.167-.273-2.38-.811v-2.26h.129q1.03.856 2.378 1.321 1.35.465 2.534.465 1.677 0 2.607-.629.939-.629.939-1.677 0-.902-.447-1.33-.437-.43-1.34-.666-.683-.182-1.485-.3-.793-.12-1.686-.302-1.805-.382-2.68-1.303-.866-.93-.866-2.415 0-1.705 1.44-2.79 1.44-1.093 3.655-1.093 1.431 0 2.625.273 1.194.274 2.115.675v2.133h-.128q-.775-.657-2.042-1.085-1.257-.438-2.58-.438-1.448 0-2.332.602-.875.602-.875 1.55 0 .847.437 1.33.438.483 1.54.738.584.128 1.66.31 1.075.183 1.822.374 1.513.401 2.279 1.212.765.811.765 2.27z" id="path5260"/><path d="M98.76 56.362h-4.85V68.33h-1.805V56.362h-4.848v-1.604h11.502z" id="path5262"/><path d="M116.77 54.758l-4.777 7.62v5.952h-1.804v-5.76l-4.794-7.812h1.996l3.71 6.07 3.745-6.07z" id="path5264"/><path d="M133.796 68.33h-8.586V54.758h1.804v11.967h6.782z" id="path5266"/><path d="M146.948 68.33h-5.36v-1.386h1.778v-10.8h-1.777v-1.386h5.359v1.385h-1.777v10.801h1.777z" id="path5268"/><path d="M166.462 64.456q0 .793-.373 1.568-.365.774-1.03 1.312-.73.583-1.705.911-.966.329-2.333.329-1.468 0-2.643-.274-1.167-.273-2.38-.811v-2.26h.128q1.03.856 2.38 1.321 1.348.465 2.533.465 1.677 0 2.607-.629.939-.629.939-1.677 0-.902-.447-1.33-.437-.43-1.34-.666-.683-.182-1.485-.3-.793-.12-1.687-.302-1.804-.382-2.68-1.303-.865-.93-.865-2.415 0-1.705 1.44-2.79 1.44-1.093 3.655-1.093 1.43 0 2.625.273 1.194.274 2.114.675v2.133h-.127q-.775-.657-2.042-1.085-1.258-.438-2.58-.438-1.449 0-2.333.602-.875.602-.875 1.55 0 .847.438 1.33.437.483 1.54.738.584.128 1.659.31 1.076.183 1.823.374 1.513.401 2.279 1.212.765.811.765 2.27z" id="path5270"/><path d="M185.603 56.362h-4.85V68.33h-1.804V56.362H174.1v-1.604h11.503z" id="path5272"/></g><g aria-label="ashion" transform="matrix(.73587 0 0 .66365 5.198 87.87)" id="ashion" font-size="10.825" font-family="Dancing Script" text-anchor="middle" fill="#e0c4b1" stroke-width=".254"><path d="M17.45 302.453q-.336 0-.563-.227-.239-.216-.239-.671 0-.39.174-.834.173-.454.476-.887.303-.444.682-.801.39-.368.812-.585.433-.216.855-.216t.704.227q.28.217.28.585 0 .27-.15.368-.141.097-.38.097.022-.087.033-.184.022-.108.022-.195 0-.249-.12-.422-.118-.184-.41-.184-.304 0-.618.217-.314.205-.606.562-.292.347-.52.758-.227.411-.357.812-.13.4-.13.714 0 .423.293.423.249 0 .54-.228.293-.238.596-.595.314-.368.596-.758.281-.39.498-.714.043-.065.054-.065.065.01.162.043.108.033.184.087.076.054.076.14 0 .098-.098.271-.097.162-.216.379-.12.216-.217.444-.097.216-.097.411 0 .162.087.325.086.151.281.151.292 0 .769-.422.476-.433.963-1.288l.108.108q-.227.585-.584 1.029-.358.443-.769.692-.4.25-.79.25-.4 0-.595-.239-.184-.238-.184-.52 0-.064.01-.14l.022-.173q-.465.628-.855.941-.379.314-.78.314z" style="line-height:1.25" id="path49"/><path d="M24.22 302.497q-.51 0-.813-.228-.292-.216-.41-.54-.13-.326-.13-.65 0-.325.086-.498t.206-.26q.13-.087.238-.13.119-.043.162-.087.325-.357.595-.746.271-.39.477-.823v-.13q0-.4.13-.563.14-.173.292-.173.086 0 .13.043.043.044.043.098 0 .054-.032.173-.033.119-.033.303 0 .357.14.78.142.41.282.876.141.455.141.953 0 .14-.022.281-.01.13-.043.249.379-.065.714-.336.336-.281.65-.887l.097.108q-.205.595-.617.91-.411.302-.898.378-.173.466-.552.682-.368.217-.834.217zm.021-.38q.13 0 .346-.086.217-.086.336-.444-.455-.086-.812-.357-.346-.27-.52-.541-.238.01-.238.379 0 .39.228.725.238.325.66.325zm.736-.703q.022-.108.033-.227.01-.12.01-.282 0-.508-.13-1.006-.119-.509-.205-.953-.25.412-.53.79-.271.368-.52.617.162.347.498.65.346.303.844.411z" style="line-height:1.25" id="path51"/><path d="M28.772 302.356q-.206 0-.325-.346-.119-.347-.119-.78 0-.52.173-1.234t.455-1.504q.281-.79.628-1.548.357-.758.725-1.375t.693-.985q.324-.368.563-.368.194 0 .27.238.087.227.087.444 0 .303-.14.736-.13.433-.369.93-.238.488-.552.964-.314.476-.682.877-.368.39-.747.617-.13.314-.227.704-.087.39-.13.768-.043.368-.043.66v.206q.01.087.021.162.152-.443.325-.855.184-.422.39-.768.205-.357.433-.617.238-.27.498-.412.26-.151.552-.151.303 0 .476.151.184.141.26.369.086.216.086.454 0 .336-.119.65-.108.314-.227.606-.12.292-.12.563 0 .216.087.314.098.097.239.097.249 0 .552-.238.314-.238.617-.628.303-.4.52-.866l.14.13q-.227.53-.552.963-.325.422-.715.671-.39.25-.811.25-.368 0-.563-.195-.184-.195-.184-.488 0-.227.086-.508.087-.282.163-.574.086-.292.086-.552 0-.281-.119-.4-.119-.12-.292-.12-.27 0-.487.217-.217.216-.4.563-.174.335-.336.714l-.292.725q-.141.336-.282.552-.14.217-.292.217zm.8-3.756q.304-.238.585-.606.293-.368.542-.78.249-.422.443-.822.195-.4.303-.726.109-.324.109-.487 0-.054-.011-.065-.01-.021-.033-.021-.075 0-.313.303-.228.292-.53.79-.304.498-.596 1.126-.293.627-.498 1.288z" style="line-height:1.25" id="path53"/><path d="M35.64 302.226q-.423 0-.629-.27-.205-.26-.205-.64 0-.248.086-.627.098-.379.25-.79.15-.422.346-.79.205-.368.433-.596.227-.238.443-.238.098 0 .163.065.076.054.076.173 0 .13-.174.422-.162.293-.39.671-.227.38-.4.802-.162.41-.162.79 0 .39.13.52t.4.13q.368 0 .78-.369.422-.368.887-1.288l.098.108q-.314.931-.91 1.43-.584.497-1.223.497zm1.298-4.958q-.173 0-.314-.086-.13-.087-.13-.27 0-.228.26-.39.27-.174.53-.174.163 0 .26.076.098.076.098.26 0 .206-.228.4-.216.184-.476.184z" style="line-height:1.25" id="path55"/><path d="M39.645 302.291q-.465 0-.66-.292-.195-.282-.195-.693 0-.336.108-.693.109-.357.282-.67.184-.315.4-.51.228-.195.455-.195.054 0 .108.022.065.01.12.033-.098.086-.239.324-.13.228-.249.53-.119.293-.205.585-.076.293-.076.498 0 .325.108.476.108.141.282.141.227 0 .54-.238.315-.249.618-.628-.303-.249-.477-.65-.162-.41-.162-.833 0-.357.12-.67.13-.315.367-.499.238-.195.574-.195.444 0 .595.239.152.238.152.595 0 .422-.206.942-.206.508-.52.985.195.108.412.108.173 0 .39-.065.216-.076.422-.25.216-.172.346-.465l.13.109q-.216.508-.617.725-.39.206-.747.206-.14 0-.27-.022-.13-.033-.25-.087-.367.487-.811.812-.433.325-.845.325zm1.592-1.591q.27-.4.443-.834.184-.443.184-.833 0-.314-.097-.455-.087-.151-.227-.151-.217 0-.444.314-.227.313-.227.79 0 .314.086.638.098.314.282.53z" style="line-height:1.25" id="path57"/><path d="M47.572 302.161q-.379 0-.573-.195-.184-.195-.184-.498 0-.227.075-.476.087-.249.163-.509.076-.27.076-.52 0-.302-.13-.41-.12-.12-.303-.12-.336 0-.682.282-.347.27-.672.703-.324.423-.606.877-.281.455-.498.812-.173 0-.324-.065-.163-.054-.25-.173 0-.054.12-.336.108-.281.26-.693.151-.41.27-.844.12-.433.12-.79.064-.076.205-.152.14-.075.292-.075.292 0 .292.281 0 .173-.097.585-.097.4-.249.844.292-.444.65-.877.368-.444.779-.736.411-.292.823-.292.422 0 .606.303.195.303.195.671 0 .336-.109.628-.108.281-.227.552-.108.26-.108.53 0 .228.086.325.098.087.238.087.271 0 .542-.25.27-.26.52-.649.26-.39.454-.79l.119.14q-.227.531-.509.942-.281.412-.617.65-.335.238-.747.238z" style="line-height:1.25" id="path59"/></g></g></svg>