<?xml version="1.0" encoding="UTF-8" standalone="no"?>
<svg
   xmlns:dc="http://purl.org/dc/elements/1.1/"
   xmlns:cc="http://creativecommons.org/ns#"
   xmlns:rdf="http://www.w3.org/1999/02/22-rdf-syntax-ns#"
   xmlns:svg="http://www.w3.org/2000/svg"
   xmlns="http://www.w3.org/2000/svg"
   xmlns:sodipodi="http://sodipodi.sourceforge.net/DTD/sodipodi-0.dtd"
   xmlns:inkscape="http://www.inkscape.org/namespaces/inkscape"
   width="365"
   height="564"
   viewBox="0 0 365 564"
   version="1.1"
   id="svg1499"
   sodipodi:docname="Ellipse_copy15.svg"
   inkscape:version="1.0.1 (3bc2e813f5, 2020-09-07)">
  <metadata
     id="metadata1503">
    <rdf:RDF>
      <cc:Work
         rdf:about="">
        <dc:format>image/svg+xml</dc:format>
        <dc:type
           rdf:resource="http://purl.org/dc/dcmitype/StillImage" />
        <dc:title></dc:title>
      </cc:Work>
    </rdf:RDF>
  </metadata>
  <sodipodi:namedview
     pagecolor="#ffffff"
     bordercolor="#666666"
     borderopacity="1"
     objecttolerance="10"
     gridtolerance="10"
     guidetolerance="10"
     inkscape:pageopacity="0"
     inkscape:pageshadow="2"
     inkscape:window-width="1920"
     inkscape:window-height="1017"
     id="namedview1501"
     showgrid="false"
     inkscape:zoom="1.5232975"
     inkscape:cx="180.5"
     inkscape:cy="226.48235"
     inkscape:window-x="-8"
     inkscape:window-y="-8"
     inkscape:window-maximized="1"
     inkscape:current-layer="svg1499" />
  <defs
     id="defs1496">
    <style
       id="style1494">
      .cls-1 {
        fill: #eaeaea;
        fill-rule: evenodd;
      }
    </style>
  </defs>
  <path
     id="Ellipse_2_copy_15"
     data-name="Ellipse 2 copy 15"
     class="cls-1"
     d="M 5,4 A 3,3 0 1 1 2,7 3,3 0 0 1 5,4 Z m 31,0 a 3,3 0 1 1 -3,3 3,3 0 0 1 3,-3 z m 31,0 a 3,3 0 1 1 -3,3 3,3 0 0 1 3,-3 z m 31,0 a 3,3 0 1 1 -3,3 3,3 0 0 1 3,-3 z m 31,0 a 3,3 0 1 1 -3,3 3,3 0 0 1 3,-3 z m 31,0 a 3,3 0 1 1 -3,3 3,3 0 0 1 3,-3 z m 31,0 a 3,3 0 1 1 -3,3 3,3 0 0 1 3,-3 z m 31,0 a 3,3 0 1 1 -3,3 3,3 0 0 1 3,-3 z m 31,0 a 3,3 0 1 1 -3,3 3,3 0 0 1 3,-3 z m 31,0 a 3,3 0 1 1 -3,3 3,3 0 0 1 3,-3 z m 31,0 a 3,3 0 1 1 -3,3 3,3 0 0 1 3,-3 z m 31,0 a 3,3 0 1 1 -3,3 3,3 0 0 1 3,-3 z M 5,45 a 3,3 0 1 1 -3,3 3,3 0 0 1 3,-3 z m 31,0 a 3,3 0 1 1 -3,3 3,3 0 0 1 3,-3 z m 31,0 a 3,3 0 1 1 -3,3 3,3 0 0 1 3,-3 z m 31,0 a 3,3 0 1 1 -3,3 3,3 0 0 1 3,-3 z m 31,0 a 3,3 0 1 1 -3,3 3,3 0 0 1 3,-3 z m 31,0 a 3,3 0 1 1 -3,3 3,3 0 0 1 3,-3 z m 31,0 a 3,3 0 1 1 -3,3 3,3 0 0 1 3,-3 z m 31,0 a 3,3 0 1 1 -3,3 3,3 0 0 1 3,-3 z m 31,0 a 3,3 0 1 1 -3,3 3,3 0 0 1 3,-3 z m 31,0 a 3,3 0 1 1 -3,3 3,3 0 0 1 3,-3 z m 31,0 a 3,3 0 1 1 -3,3 3,3 0 0 1 3,-3 z m 31,0 a 3,3 0 1 1 -3,3 3,3 0 0 1 3,-3 z M 5,86 a 3,3 0 1 1 -3,3 3,3 0 0 1 3,-3 z m 31,0 a 3,3 0 1 1 -3,3 3,3 0 0 1 3,-3 z m 31,0 a 3,3 0 1 1 -3,3 3,3 0 0 1 3,-3 z m 31,0 a 3,3 0 1 1 -3,3 3,3 0 0 1 3,-3 z m 31,0 a 3,3 0 1 1 -3,3 3,3 0 0 1 3,-3 z m 31,0 a 3,3 0 1 1 -3,3 3,3 0 0 1 3,-3 z m 31,0 a 3,3 0 1 1 -3,3 3,3 0 0 1 3,-3 z m 31,0 a 3,3 0 1 1 -3,3 3,3 0 0 1 3,-3 z m 31,0 a 3,3 0 1 1 -3,3 3,3 0 0 1 3,-3 z m 31,0 a 3,3 0 1 1 -3,3 3,3 0 0 1 3,-3 z m 31,0 a 3,3 0 1 1 -3,3 3,3 0 0 1 3,-3 z m 31,0 a 3,3 0 1 1 -3,3 3,3 0 0 1 3,-3 z M 5,127 a 3,3 0 1 1 -3,3 3,3 0 0 1 3,-3 z m 31,0 a 3,3 0 1 1 -3,3 3,3 0 0 1 3,-3 z m 31,0 a 3,3 0 1 1 -3,3 3,3 0 0 1 3,-3 z m 31,0 a 3,3 0 1 1 -3,3 3,3 0 0 1 3,-3 z m 31,0 a 3,3 0 1 1 -3,3 3,3 0 0 1 3,-3 z m 31,0 a 3,3 0 1 1 -3,3 3,3 0 0 1 3,-3 z m 31,0 a 3,3 0 1 1 -3,3 3,3 0 0 1 3,-3 z m 31,0 a 3,3 0 1 1 -3,3 3,3 0 0 1 3,-3 z m 31,0 a 3,3 0 1 1 -3,3 3,3 0 0 1 3,-3 z m 31,0 a 3,3 0 1 1 -3,3 3,3 0 0 1 3,-3 z m 31,0 a 3,3 0 1 1 -3,3 3,3 0 0 1 3,-3 z m 31,0 a 3,3 0 1 1 -3,3 3,3 0 0 1 3,-3 z M 5,168 a 3,3 0 1 1 -3,3 3,3 0 0 1 3,-3 z m 31,0 a 3,3 0 1 1 -3,3 3,3 0 0 1 3,-3 z m 31,0 a 3,3 0 1 1 -3,3 3,3 0 0 1 3,-3 z m 31,0 a 3,3 0 1 1 -3,3 3,3 0 0 1 3,-3 z m 31,0 a 3,3 0 1 1 -3,3 3,3 0 0 1 3,-3 z m 31,0 a 3,3 0 1 1 -3,3 3,3 0 0 1 3,-3 z m 31,0 a 3,3 0 1 1 -3,3 3,3 0 0 1 3,-3 z m 31,0 a 3,3 0 1 1 -3,3 3,3 0 0 1 3,-3 z m 31,0 a 3,3 0 1 1 -3,3 3,3 0 0 1 3,-3 z m 31,0 a 3,3 0 1 1 -3,3 3,3 0 0 1 3,-3 z m 31,0 a 3,3 0 1 1 -3,3 3,3 0 0 1 3,-3 z m 31,0 a 3,3 0 1 1 -3,3 3,3 0 0 1 3,-3 z M 5,209 a 3,3 0 1 1 -3,3 3,3 0 0 1 3,-3 z m 31,0 a 3,3 0 1 1 -3,3 3,3 0 0 1 3,-3 z m 31,0 a 3,3 0 1 1 -3,3 3,3 0 0 1 3,-3 z m 31,0 a 3,3 0 1 1 -3,3 3,3 0 0 1 3,-3 z m 31,0 a 3,3 0 1 1 -3,3 3,3 0 0 1 3,-3 z m 31,0 a 3,3 0 1 1 -3,3 3,3 0 0 1 3,-3 z m 31,0 a 3,3 0 1 1 -3,3 3,3 0 0 1 3,-3 z m 31,0 a 3,3 0 1 1 -3,3 3,3 0 0 1 3,-3 z m 31,0 a 3,3 0 1 1 -3,3 3,3 0 0 1 3,-3 z m 31,0 a 3,3 0 1 1 -3,3 3,3 0 0 1 3,-3 z m 31,0 a 3,3 0 1 1 -3,3 3,3 0 0 1 3,-3 z m 31,0 a 3,3 0 1 1 -3,3 3,3 0 0 1 3,-3 z M 5,250 a 3,3 0 1 1 -3,3 3,3 0 0 1 3,-3 z m 31,0 a 3,3 0 1 1 -3,3 3,3 0 0 1 3,-3 z m 31,0 a 3,3 0 1 1 -3,3 3,3 0 0 1 3,-3 z m 31,0 a 3,3 0 1 1 -3,3 3,3 0 0 1 3,-3 z m 31,0 a 3,3 0 1 1 -3,3 3,3 0 0 1 3,-3 z m 31,0 a 3,3 0 1 1 -3,3 3,3 0 0 1 3,-3 z m 31,0 a 3,3 0 1 1 -3,3 3,3 0 0 1 3,-3 z m 31,0 a 3,3 0 1 1 -3,3 3,3 0 0 1 3,-3 z m 31,0 a 3,3 0 1 1 -3,3 3,3 0 0 1 3,-3 z m 31,0 a 3,3 0 1 1 -3,3 3,3 0 0 1 3,-3 z m 31,0 a 3,3 0 1 1 -3,3 3,3 0 0 1 3,-3 z m 31,0 a 3,3 0 1 1 -3,3 3,3 0 0 1 3,-3 z M 5,25 a 3,3 0 1 1 -3,3 3,3 0 0 1 3,-3 z m 31,0 a 3,3 0 1 1 -3,3 3,3 0 0 1 3,-3 z m 31,0 a 3,3 0 1 1 -3,3 3,3 0 0 1 3,-3 z m 31,0 a 3,3 0 1 1 -3,3 3,3 0 0 1 3,-3 z m 31,0 a 3,3 0 1 1 -3,3 3,3 0 0 1 3,-3 z m 31,0 a 3,3 0 1 1 -3,3 3,3 0 0 1 3,-3 z m 31,0 a 3,3 0 1 1 -3,3 3,3 0 0 1 3,-3 z m 31,0 a 3,3 0 1 1 -3,3 3,3 0 0 1 3,-3 z m 31,0 a 3,3 0 1 1 -3,3 3,3 0 0 1 3,-3 z m 31,0 a 3,3 0 1 1 -3,3 3,3 0 0 1 3,-3 z m 31,0 a 3,3 0 1 1 -3,3 3,3 0 0 1 3,-3 z m 31,0 a 3,3 0 1 1 -3,3 3,3 0 0 1 3,-3 z M 5,66 a 3,3 0 1 1 -3,3 3,3 0 0 1 3,-3 z m 31,0 a 3,3 0 1 1 -3,3 3,3 0 0 1 3,-3 z m 31,0 a 3,3 0 1 1 -3,3 3,3 0 0 1 3,-3 z m 31,0 a 3,3 0 1 1 -3,3 3,3 0 0 1 3,-3 z m 31,0 a 3,3 0 1 1 -3,3 3,3 0 0 1 3,-3 z m 31,0 a 3,3 0 1 1 -3,3 3,3 0 0 1 3,-3 z m 31,0 a 3,3 0 1 1 -3,3 3,3 0 0 1 3,-3 z m 31,0 a 3,3 0 1 1 -3,3 3,3 0 0 1 3,-3 z m 31,0 a 3,3 0 1 1 -3,3 3,3 0 0 1 3,-3 z m 31,0 a 3,3 0 1 1 -3,3 3,3 0 0 1 3,-3 z m 31,0 a 3,3 0 1 1 -3,3 3,3 0 0 1 3,-3 z m 31,0 a 3,3 0 1 1 -3,3 3,3 0 0 1 3,-3 z M 5,107 a 3,3 0 1 1 -3,3 3,3 0 0 1 3,-3 z m 31,0 a 3,3 0 1 1 -3,3 3,3 0 0 1 3,-3 z m 31,0 a 3,3 0 1 1 -3,3 3,3 0 0 1 3,-3 z m 31,0 a 3,3 0 1 1 -3,3 3,3 0 0 1 3,-3 z m 31,0 a 3,3 0 1 1 -3,3 3,3 0 0 1 3,-3 z m 31,0 a 3,3 0 1 1 -3,3 3,3 0 0 1 3,-3 z m 31,0 a 3,3 0 1 1 -3,3 3,3 0 0 1 3,-3 z m 31,0 a 3,3 0 1 1 -3,3 3,3 0 0 1 3,-3 z m 31,0 a 3,3 0 1 1 -3,3 3,3 0 0 1 3,-3 z m 31,0 a 3,3 0 1 1 -3,3 3,3 0 0 1 3,-3 z m 31,0 a 3,3 0 1 1 -3,3 3,3 0 0 1 3,-3 z m 31,0 a 3,3 0 1 1 -3,3 3,3 0 0 1 3,-3 z M 5,148 a 3,3 0 1 1 -3,3 3,3 0 0 1 3,-3 z m 31,0 a 3,3 0 1 1 -3,3 3,3 0 0 1 3,-3 z m 31,0 a 3,3 0 1 1 -3,3 3,3 0 0 1 3,-3 z m 31,0 a 3,3 0 1 1 -3,3 3,3 0 0 1 3,-3 z m 31,0 a 3,3 0 1 1 -3,3 3,3 0 0 1 3,-3 z m 31,0 a 3,3 0 1 1 -3,3 3,3 0 0 1 3,-3 z m 31,0 a 3,3 0 1 1 -3,3 3,3 0 0 1 3,-3 z m 31,0 a 3,3 0 1 1 -3,3 3,3 0 0 1 3,-3 z m 31,0 a 3,3 0 1 1 -3,3 3,3 0 0 1 3,-3 z m 31,0 a 3,3 0 1 1 -3,3 3,3 0 0 1 3,-3 z m 31,0 a 3,3 0 1 1 -3,3 3,3 0 0 1 3,-3 z m 31,0 a 3,3 0 1 1 -3,3 3,3 0 0 1 3,-3 z M 5,189 a 3,3 0 1 1 -3,3 3,3 0 0 1 3,-3 z m 31,0 a 3,3 0 1 1 -3,3 3,3 0 0 1 3,-3 z m 31,0 a 3,3 0 1 1 -3,3 3,3 0 0 1 3,-3 z m 31,0 a 3,3 0 1 1 -3,3 3,3 0 0 1 3,-3 z m 31,0 a 3,3 0 1 1 -3,3 3,3 0 0 1 3,-3 z m 31,0 a 3,3 0 1 1 -3,3 3,3 0 0 1 3,-3 z m 31,0 a 3,3 0 1 1 -3,3 3,3 0 0 1 3,-3 z m 31,0 a 3,3 0 1 1 -3,3 3,3 0 0 1 3,-3 z m 31,0 a 3,3 0 1 1 -3,3 3,3 0 0 1 3,-3 z m 31,0 a 3,3 0 1 1 -3,3 3,3 0 0 1 3,-3 z m 31,0 a 3,3 0 1 1 -3,3 3,3 0 0 1 3,-3 z m 31,0 a 3,3 0 1 1 -3,3 3,3 0 0 1 3,-3 z M 5,230 a 3,3 0 1 1 -3,3 3,3 0 0 1 3,-3 z m 31,0 a 3,3 0 1 1 -3,3 3,3 0 0 1 3,-3 z m 31,0 a 3,3 0 1 1 -3,3 3,3 0 0 1 3,-3 z m 31,0 a 3,3 0 1 1 -3,3 3,3 0 0 1 3,-3 z m 31,0 a 3,3 0 1 1 -3,3 3,3 0 0 1 3,-3 z m 31,0 a 3,3 0 1 1 -3,3 3,3 0 0 1 3,-3 z m 31,0 a 3,3 0 1 1 -3,3 3,3 0 0 1 3,-3 z m 31,0 a 3,3 0 1 1 -3,3 3,3 0 0 1 3,-3 z m 31,0 a 3,3 0 1 1 -3,3 3,3 0 0 1 3,-3 z m 31,0 a 3,3 0 1 1 -3,3 3,3 0 0 1 3,-3 z m 31,0 a 3,3 0 1 1 -3,3 3,3 0 0 1 3,-3 z m 31,0 a 3,3 0 1 1 -3,3 3,3 0 0 1 3,-3 z M 5,271 a 3,3 0 1 1 -3,3 3,3 0 0 1 3,-3 z m 31,0 a 3,3 0 1 1 -3,3 3,3 0 0 1 3,-3 z m 31,0 a 3,3 0 1 1 -3,3 3,3 0 0 1 3,-3 z m 31,0 a 3,3 0 1 1 -3,3 3,3 0 0 1 3,-3 z m 31,0 a 3,3 0 1 1 -3,3 3,3 0 0 1 3,-3 z m 31,0 a 3,3 0 1 1 -3,3 3,3 0 0 1 3,-3 z m 31,0 a 3,3 0 1 1 -3,3 3,3 0 0 1 3,-3 z m 31,0 a 3,3 0 1 1 -3,3 3,3 0 0 1 3,-3 z m 31,0 a 3,3 0 1 1 -3,3 3,3 0 0 1 3,-3 z m 31,0 a 3,3 0 1 1 -3,3 3,3 0 0 1 3,-3 z m 31,0 a 3,3 0 1 1 -3,3 3,3 0 0 1 3,-3 z m 31,0 a 3,3 0 1 1 -3,3 3,3 0 0 1 3,-3 z M 19,4 a 3,3 0 1 1 -3,3 3,3 0 0 1 3,-3 z m 31,0 a 3,3 0 1 1 -3,3 3,3 0 0 1 3,-3 z m 31,0 a 3,3 0 1 1 -3,3 3,3 0 0 1 3,-3 z m 31,0 a 3,3 0 1 1 -3,3 3,3 0 0 1 3,-3 z m 31,0 a 3,3 0 1 1 -3,3 3,3 0 0 1 3,-3 z m 31,0 a 3,3 0 1 1 -3,3 3,3 0 0 1 3,-3 z m 31,0 a 3,3 0 1 1 -3,3 3,3 0 0 1 3,-3 z m 31,0 a 3,3 0 1 1 -3,3 3,3 0 0 1 3,-3 z m 31,0 a 3,3 0 1 1 -3,3 3,3 0 0 1 3,-3 z m 31,0 a 3,3 0 1 1 -3,3 3,3 0 0 1 3,-3 z m 31,0 a 3,3 0 1 1 -3,3 3,3 0 0 1 3,-3 z m 31,0 a 3,3 0 1 1 -3,3 3,3 0 0 1 3,-3 z M 19,45 a 3,3 0 1 1 -3,3 3,3 0 0 1 3,-3 z m 31,0 a 3,3 0 1 1 -3,3 3,3 0 0 1 3,-3 z m 31,0 a 3,3 0 1 1 -3,3 3,3 0 0 1 3,-3 z m 31,0 a 3,3 0 1 1 -3,3 3,3 0 0 1 3,-3 z m 31,0 a 3,3 0 1 1 -3,3 3,3 0 0 1 3,-3 z m 31,0 a 3,3 0 1 1 -3,3 3,3 0 0 1 3,-3 z m 31,0 a 3,3 0 1 1 -3,3 3,3 0 0 1 3,-3 z m 31,0 a 3,3 0 1 1 -3,3 3,3 0 0 1 3,-3 z m 31,0 a 3,3 0 1 1 -3,3 3,3 0 0 1 3,-3 z m 31,0 a 3,3 0 1 1 -3,3 3,3 0 0 1 3,-3 z m 31,0 a 3,3 0 1 1 -3,3 3,3 0 0 1 3,-3 z m 31,0 a 3,3 0 1 1 -3,3 3,3 0 0 1 3,-3 z M 19,86 a 3,3 0 1 1 -3,3 3,3 0 0 1 3,-3 z m 31,0 a 3,3 0 1 1 -3,3 3,3 0 0 1 3,-3 z m 31,0 a 3,3 0 1 1 -3,3 3,3 0 0 1 3,-3 z m 31,0 a 3,3 0 1 1 -3,3 3,3 0 0 1 3,-3 z m 31,0 a 3,3 0 1 1 -3,3 3,3 0 0 1 3,-3 z m 31,0 a 3,3 0 1 1 -3,3 3,3 0 0 1 3,-3 z m 31,0 a 3,3 0 1 1 -3,3 3,3 0 0 1 3,-3 z m 31,0 a 3,3 0 1 1 -3,3 3,3 0 0 1 3,-3 z m 31,0 a 3,3 0 1 1 -3,3 3,3 0 0 1 3,-3 z m 31,0 a 3,3 0 1 1 -3,3 3,3 0 0 1 3,-3 z m 31,0 a 3,3 0 1 1 -3,3 3,3 0 0 1 3,-3 z m 31,0 a 3,3 0 1 1 -3,3 3,3 0 0 1 3,-3 z M 19,127 a 3,3 0 1 1 -3,3 3,3 0 0 1 3,-3 z m 31,0 a 3,3 0 1 1 -3,3 3,3 0 0 1 3,-3 z m 31,0 a 3,3 0 1 1 -3,3 3,3 0 0 1 3,-3 z m 31,0 a 3,3 0 1 1 -3,3 3,3 0 0 1 3,-3 z m 31,0 a 3,3 0 1 1 -3,3 3,3 0 0 1 3,-3 z m 31,0 a 3,3 0 1 1 -3,3 3,3 0 0 1 3,-3 z m 31,0 a 3,3 0 1 1 -3,3 3,3 0 0 1 3,-3 z m 31,0 a 3,3 0 1 1 -3,3 3,3 0 0 1 3,-3 z m 31,0 a 3,3 0 1 1 -3,3 3,3 0 0 1 3,-3 z m 31,0 a 3,3 0 1 1 -3,3 3,3 0 0 1 3,-3 z m 31,0 a 3,3 0 1 1 -3,3 3,3 0 0 1 3,-3 z m 31,0 a 3,3 0 1 1 -3,3 3,3 0 0 1 3,-3 z M 19,168 a 3,3 0 1 1 -3,3 3,3 0 0 1 3,-3 z m 31,0 a 3,3 0 1 1 -3,3 3,3 0 0 1 3,-3 z m 31,0 a 3,3 0 1 1 -3,3 3,3 0 0 1 3,-3 z m 31,0 a 3,3 0 1 1 -3,3 3,3 0 0 1 3,-3 z m 31,0 a 3,3 0 1 1 -3,3 3,3 0 0 1 3,-3 z m 31,0 a 3,3 0 1 1 -3,3 3,3 0 0 1 3,-3 z m 31,0 a 3,3 0 1 1 -3,3 3,3 0 0 1 3,-3 z m 31,0 a 3,3 0 1 1 -3,3 3,3 0 0 1 3,-3 z m 31,0 a 3,3 0 1 1 -3,3 3,3 0 0 1 3,-3 z m 31,0 a 3,3 0 1 1 -3,3 3,3 0 0 1 3,-3 z m 31,0 a 3,3 0 1 1 -3,3 3,3 0 0 1 3,-3 z m 31,0 a 3,3 0 1 1 -3,3 3,3 0 0 1 3,-3 z M 19,209 a 3,3 0 1 1 -3,3 3,3 0 0 1 3,-3 z m 31,0 a 3,3 0 1 1 -3,3 3,3 0 0 1 3,-3 z m 31,0 a 3,3 0 1 1 -3,3 3,3 0 0 1 3,-3 z m 31,0 a 3,3 0 1 1 -3,3 3,3 0 0 1 3,-3 z m 31,0 a 3,3 0 1 1 -3,3 3,3 0 0 1 3,-3 z m 31,0 a 3,3 0 1 1 -3,3 3,3 0 0 1 3,-3 z m 31,0 a 3,3 0 1 1 -3,3 3,3 0 0 1 3,-3 z m 31,0 a 3,3 0 1 1 -3,3 3,3 0 0 1 3,-3 z m 31,0 a 3,3 0 1 1 -3,3 3,3 0 0 1 3,-3 z m 31,0 a 3,3 0 1 1 -3,3 3,3 0 0 1 3,-3 z m 31,0 a 3,3 0 1 1 -3,3 3,3 0 0 1 3,-3 z m 31,0 a 3,3 0 1 1 -3,3 3,3 0 0 1 3,-3 z M 19,250 a 3,3 0 1 1 -3,3 3,3 0 0 1 3,-3 z m 31,0 a 3,3 0 1 1 -3,3 3,3 0 0 1 3,-3 z m 31,0 a 3,3 0 1 1 -3,3 3,3 0 0 1 3,-3 z m 31,0 a 3,3 0 1 1 -3,3 3,3 0 0 1 3,-3 z m 31,0 a 3,3 0 1 1 -3,3 3,3 0 0 1 3,-3 z m 31,0 a 3,3 0 1 1 -3,3 3,3 0 0 1 3,-3 z m 31,0 a 3,3 0 1 1 -3,3 3,3 0 0 1 3,-3 z m 31,0 a 3,3 0 1 1 -3,3 3,3 0 0 1 3,-3 z m 31,0 a 3,3 0 1 1 -3,3 3,3 0 0 1 3,-3 z m 31,0 a 3,3 0 1 1 -3,3 3,3 0 0 1 3,-3 z m 31,0 a 3,3 0 1 1 -3,3 3,3 0 0 1 3,-3 z m 31,0 a 3,3 0 1 1 -3,3 3,3 0 0 1 3,-3 z M 19,25 a 3,3 0 1 1 -3,3 3,3 0 0 1 3,-3 z m 31,0 a 3,3 0 1 1 -3,3 3,3 0 0 1 3,-3 z m 31,0 a 3,3 0 1 1 -3,3 3,3 0 0 1 3,-3 z m 31,0 a 3,3 0 1 1 -3,3 3,3 0 0 1 3,-3 z m 31,0 a 3,3 0 1 1 -3,3 3,3 0 0 1 3,-3 z m 31,0 a 3,3 0 1 1 -3,3 3,3 0 0 1 3,-3 z m 31,0 a 3,3 0 1 1 -3,3 3,3 0 0 1 3,-3 z m 31,0 a 3,3 0 1 1 -3,3 3,3 0 0 1 3,-3 z m 31,0 a 3,3 0 1 1 -3,3 3,3 0 0 1 3,-3 z m 31,0 a 3,3 0 1 1 -3,3 3,3 0 0 1 3,-3 z m 31,0 a 3,3 0 1 1 -3,3 3,3 0 0 1 3,-3 z m 31,0 a 3,3 0 1 1 -3,3 3,3 0 0 1 3,-3 z M 19,66 a 3,3 0 1 1 -3,3 3,3 0 0 1 3,-3 z m 31,0 a 3,3 0 1 1 -3,3 3,3 0 0 1 3,-3 z m 31,0 a 3,3 0 1 1 -3,3 3,3 0 0 1 3,-3 z m 31,0 a 3,3 0 1 1 -3,3 3,3 0 0 1 3,-3 z m 31,0 a 3,3 0 1 1 -3,3 3,3 0 0 1 3,-3 z m 31,0 a 3,3 0 1 1 -3,3 3,3 0 0 1 3,-3 z m 31,0 a 3,3 0 1 1 -3,3 3,3 0 0 1 3,-3 z m 31,0 a 3,3 0 1 1 -3,3 3,3 0 0 1 3,-3 z m 31,0 a 3,3 0 1 1 -3,3 3,3 0 0 1 3,-3 z m 31,0 a 3,3 0 1 1 -3,3 3,3 0 0 1 3,-3 z m 31,0 a 3,3 0 1 1 -3,3 3,3 0 0 1 3,-3 z m 31,0 a 3,3 0 1 1 -3,3 3,3 0 0 1 3,-3 z M 19,107 a 3,3 0 1 1 -3,3 3,3 0 0 1 3,-3 z m 31,0 a 3,3 0 1 1 -3,3 3,3 0 0 1 3,-3 z m 31,0 a 3,3 0 1 1 -3,3 3,3 0 0 1 3,-3 z m 31,0 a 3,3 0 1 1 -3,3 3,3 0 0 1 3,-3 z m 31,0 a 3,3 0 1 1 -3,3 3,3 0 0 1 3,-3 z m 31,0 a 3,3 0 1 1 -3,3 3,3 0 0 1 3,-3 z m 31,0 a 3,3 0 1 1 -3,3 3,3 0 0 1 3,-3 z m 31,0 a 3,3 0 1 1 -3,3 3,3 0 0 1 3,-3 z m 31,0 a 3,3 0 1 1 -3,3 3,3 0 0 1 3,-3 z m 31,0 a 3,3 0 1 1 -3,3 3,3 0 0 1 3,-3 z m 31,0 a 3,3 0 1 1 -3,3 3,3 0 0 1 3,-3 z m 31,0 a 3,3 0 1 1 -3,3 3,3 0 0 1 3,-3 z M 19,148 a 3,3 0 1 1 -3,3 3,3 0 0 1 3,-3 z m 31,0 a 3,3 0 1 1 -3,3 3,3 0 0 1 3,-3 z m 31,0 a 3,3 0 1 1 -3,3 3,3 0 0 1 3,-3 z m 31,0 a 3,3 0 1 1 -3,3 3,3 0 0 1 3,-3 z m 31,0 a 3,3 0 1 1 -3,3 3,3 0 0 1 3,-3 z m 31,0 a 3,3 0 1 1 -3,3 3,3 0 0 1 3,-3 z m 31,0 a 3,3 0 1 1 -3,3 3,3 0 0 1 3,-3 z m 31,0 a 3,3 0 1 1 -3,3 3,3 0 0 1 3,-3 z m 31,0 a 3,3 0 1 1 -3,3 3,3 0 0 1 3,-3 z m 31,0 a 3,3 0 1 1 -3,3 3,3 0 0 1 3,-3 z m 31,0 a 3,3 0 1 1 -3,3 3,3 0 0 1 3,-3 z m 31,0 a 3,3 0 1 1 -3,3 3,3 0 0 1 3,-3 z M 19,189 a 3,3 0 1 1 -3,3 3,3 0 0 1 3,-3 z m 31,0 a 3,3 0 1 1 -3,3 3,3 0 0 1 3,-3 z m 31,0 a 3,3 0 1 1 -3,3 3,3 0 0 1 3,-3 z m 31,0 a 3,3 0 1 1 -3,3 3,3 0 0 1 3,-3 z m 31,0 a 3,3 0 1 1 -3,3 3,3 0 0 1 3,-3 z m 31,0 a 3,3 0 1 1 -3,3 3,3 0 0 1 3,-3 z m 31,0 a 3,3 0 1 1 -3,3 3,3 0 0 1 3,-3 z m 31,0 a 3,3 0 1 1 -3,3 3,3 0 0 1 3,-3 z m 31,0 a 3,3 0 1 1 -3,3 3,3 0 0 1 3,-3 z m 31,0 a 3,3 0 1 1 -3,3 3,3 0 0 1 3,-3 z m 31,0 a 3,3 0 1 1 -3,3 3,3 0 0 1 3,-3 z m 31,0 a 3,3 0 1 1 -3,3 3,3 0 0 1 3,-3 z M 19,230 a 3,3 0 1 1 -3,3 3,3 0 0 1 3,-3 z m 31,0 a 3,3 0 1 1 -3,3 3,3 0 0 1 3,-3 z m 31,0 a 3,3 0 1 1 -3,3 3,3 0 0 1 3,-3 z m 31,0 a 3,3 0 1 1 -3,3 3,3 0 0 1 3,-3 z m 31,0 a 3,3 0 1 1 -3,3 3,3 0 0 1 3,-3 z m 31,0 a 3,3 0 1 1 -3,3 3,3 0 0 1 3,-3 z m 31,0 a 3,3 0 1 1 -3,3 3,3 0 0 1 3,-3 z m 31,0 a 3,3 0 1 1 -3,3 3,3 0 0 1 3,-3 z m 31,0 a 3,3 0 1 1 -3,3 3,3 0 0 1 3,-3 z m 31,0 a 3,3 0 1 1 -3,3 3,3 0 0 1 3,-3 z m 31,0 a 3,3 0 1 1 -3,3 3,3 0 0 1 3,-3 z m 31,0 a 3,3 0 1 1 -3,3 3,3 0 0 1 3,-3 z M 19,271 a 3,3 0 1 1 -3,3 3,3 0 0 1 3,-3 z m 31,0 a 3,3 0 1 1 -3,3 3,3 0 0 1 3,-3 z m 31,0 a 3,3 0 1 1 -3,3 3,3 0 0 1 3,-3 z m 31,0 a 3,3 0 1 1 -3,3 3,3 0 0 1 3,-3 z m 31,0 a 3,3 0 1 1 -3,3 3,3 0 0 1 3,-3 z m 31,0 a 3,3 0 1 1 -3,3 3,3 0 0 1 3,-3 z m 31,0 a 3,3 0 1 1 -3,3 3,3 0 0 1 3,-3 z m 31,0 a 3,3 0 1 1 -3,3 3,3 0 0 1 3,-3 z m 31,0 a 3,3 0 1 1 -3,3 3,3 0 0 1 3,-3 z m 31,0 a 3,3 0 1 1 -3,3 3,3 0 0 1 3,-3 z m 31,0 a 3,3 0 1 1 -3,3 3,3 0 0 1 3,-3 z m 31,0 a 3,3 0 1 1 -3,3 3,3 0 0 1 3,-3 z M 5,289 a 3,3 0 1 1 -3,3 3,3 0 0 1 3,-3 z m 31,0 a 3,3 0 1 1 -3,3 3,3 0 0 1 3,-3 z m 31,0 a 3,3 0 1 1 -3,3 3,3 0 0 1 3,-3 z m 31,0 a 3,3 0 1 1 -3,3 3,3 0 0 1 3,-3 z m 31,0 a 3,3 0 1 1 -3,3 3,3 0 0 1 3,-3 z m 31,0 a 3,3 0 1 1 -3,3 3,3 0 0 1 3,-3 z m 31,0 a 3,3 0 1 1 -3,3 3,3 0 0 1 3,-3 z m 31,0 a 3,3 0 1 1 -3,3 3,3 0 0 1 3,-3 z m 31,0 a 3,3 0 1 1 -3,3 3,3 0 0 1 3,-3 z m 31,0 a 3,3 0 1 1 -3,3 3,3 0 0 1 3,-3 z m 31,0 a 3,3 0 1 1 -3,3 3,3 0 0 1 3,-3 z m 31,0 a 3,3 0 1 1 -3,3 3,3 0 0 1 3,-3 z M 5,330 a 3,3 0 1 1 -3,3 3,3 0 0 1 3,-3 z m 31,0 a 3,3 0 1 1 -3,3 3,3 0 0 1 3,-3 z m 31,0 a 3,3 0 1 1 -3,3 3,3 0 0 1 3,-3 z m 31,0 a 3,3 0 1 1 -3,3 3,3 0 0 1 3,-3 z m 31,0 a 3,3 0 1 1 -3,3 3,3 0 0 1 3,-3 z m 31,0 a 3,3 0 1 1 -3,3 3,3 0 0 1 3,-3 z m 31,0 a 3,3 0 1 1 -3,3 3,3 0 0 1 3,-3 z m 31,0 a 3,3 0 1 1 -3,3 3,3 0 0 1 3,-3 z m 31,0 a 3,3 0 1 1 -3,3 3,3 0 0 1 3,-3 z m 31,0 a 3,3 0 1 1 -3,3 3,3 0 0 1 3,-3 z m 31,0 a 3,3 0 1 1 -3,3 3,3 0 0 1 3,-3 z m 31,0 a 3,3 0 1 1 -3,3 3,3 0 0 1 3,-3 z M 5,371 a 3,3 0 1 1 -3,3 3,3 0 0 1 3,-3 z m 31,0 a 3,3 0 1 1 -3,3 3,3 0 0 1 3,-3 z m 31,0 a 3,3 0 1 1 -3,3 3,3 0 0 1 3,-3 z m 31,0 a 3,3 0 1 1 -3,3 3,3 0 0 1 3,-3 z m 31,0 a 3,3 0 1 1 -3,3 3,3 0 0 1 3,-3 z m 31,0 a 3,3 0 1 1 -3,3 3,3 0 0 1 3,-3 z m 31,0 a 3,3 0 1 1 -3,3 3,3 0 0 1 3,-3 z m 31,0 a 3,3 0 1 1 -3,3 3,3 0 0 1 3,-3 z m 31,0 a 3,3 0 1 1 -3,3 3,3 0 0 1 3,-3 z m 31,0 a 3,3 0 1 1 -3,3 3,3 0 0 1 3,-3 z m 31,0 a 3,3 0 1 1 -3,3 3,3 0 0 1 3,-3 z m 31,0 a 3,3 0 1 1 -3,3 3,3 0 0 1 3,-3 z M 5,412 a 3,3 0 1 1 -3,3 3,3 0 0 1 3,-3 z m 31,0 a 3,3 0 1 1 -3,3 3,3 0 0 1 3,-3 z m 31,0 a 3,3 0 1 1 -3,3 3,3 0 0 1 3,-3 z m 31,0 a 3,3 0 1 1 -3,3 3,3 0 0 1 3,-3 z m 31,0 a 3,3 0 1 1 -3,3 3,3 0 0 1 3,-3 z m 31,0 a 3,3 0 1 1 -3,3 3,3 0 0 1 3,-3 z m 31,0 a 3,3 0 1 1 -3,3 3,3 0 0 1 3,-3 z m 31,0 a 3,3 0 1 1 -3,3 3,3 0 0 1 3,-3 z m 31,0 a 3,3 0 1 1 -3,3 3,3 0 0 1 3,-3 z m 31,0 a 3,3 0 1 1 -3,3 3,3 0 0 1 3,-3 z m 31,0 a 3,3 0 1 1 -3,3 3,3 0 0 1 3,-3 z m 31,0 a 3,3 0 1 1 -3,3 3,3 0 0 1 3,-3 z M 5,453 a 3,3 0 1 1 -3,3 3,3 0 0 1 3,-3 z m 31,0 a 3,3 0 1 1 -3,3 3,3 0 0 1 3,-3 z m 31,0 a 3,3 0 1 1 -3,3 3,3 0 0 1 3,-3 z m 31,0 a 3,3 0 1 1 -3,3 3,3 0 0 1 3,-3 z m 31,0 a 3,3 0 1 1 -3,3 3,3 0 0 1 3,-3 z m 31,0 a 3,3 0 1 1 -3,3 3,3 0 0 1 3,-3 z m 31,0 a 3,3 0 1 1 -3,3 3,3 0 0 1 3,-3 z m 31,0 a 3,3 0 1 1 -3,3 3,3 0 0 1 3,-3 z m 31,0 a 3,3 0 1 1 -3,3 3,3 0 0 1 3,-3 z m 31,0 a 3,3 0 1 1 -3,3 3,3 0 0 1 3,-3 z m 31,0 a 3,3 0 1 1 -3,3 3,3 0 0 1 3,-3 z m 31,0 a 3,3 0 1 1 -3,3 3,3 0 0 1 3,-3 z M 5,494 a 3,3 0 1 1 -3,3 3,3 0 0 1 3,-3 z m 31,0 a 3,3 0 1 1 -3,3 3,3 0 0 1 3,-3 z m 31,0 a 3,3 0 1 1 -3,3 3,3 0 0 1 3,-3 z m 31,0 a 3,3 0 1 1 -3,3 3,3 0 0 1 3,-3 z m 31,0 a 3,3 0 1 1 -3,3 3,3 0 0 1 3,-3 z m 31,0 a 3,3 0 1 1 -3,3 3,3 0 0 1 3,-3 z m 31,0 a 3,3 0 1 1 -3,3 3,3 0 0 1 3,-3 z m 31,0 a 3,3 0 1 1 -3,3 3,3 0 0 1 3,-3 z m 31,0 a 3,3 0 1 1 -3,3 3,3 0 0 1 3,-3 z m 31,0 a 3,3 0 1 1 -3,3 3,3 0 0 1 3,-3 z m 31,0 a 3,3 0 1 1 -3,3 3,3 0 0 1 3,-3 z m 31,0 a 3,3 0 1 1 -3,3 3,3 0 0 1 3,-3 z M 5,535 a 3,3 0 1 1 -3,3 3,3 0 0 1 3,-3 z m 31,0 a 3,3 0 1 1 -3,3 3,3 0 0 1 3,-3 z m 31,0 a 3,3 0 1 1 -3,3 3,3 0 0 1 3,-3 z m 31,0 a 3,3 0 1 1 -3,3 3,3 0 0 1 3,-3 z m 31,0 a 3,3 0 1 1 -3,3 3,3 0 0 1 3,-3 z m 31,0 a 3,3 0 1 1 -3,3 3,3 0 0 1 3,-3 z m 31,0 a 3,3 0 1 1 -3,3 3,3 0 0 1 3,-3 z m 31,0 a 3,3 0 1 1 -3,3 3,3 0 0 1 3,-3 z m 31,0 a 3,3 0 1 1 -3,3 3,3 0 0 1 3,-3 z m 31,0 a 3,3 0 1 1 -3,3 3,3 0 0 1 3,-3 z m 31,0 a 3,3 0 1 1 -3,3 3,3 0 0 1 3,-3 z m 31,0 a 3,3 0 1 1 -3,3 3,3 0 0 1 3,-3 z M 5,310 a 3,3 0 1 1 -3,3 3,3 0 0 1 3,-3 z m 31,0 a 3,3 0 1 1 -3,3 3,3 0 0 1 3,-3 z m 31,0 a 3,3 0 1 1 -3,3 3,3 0 0 1 3,-3 z m 31,0 a 3,3 0 1 1 -3,3 3,3 0 0 1 3,-3 z m 31,0 a 3,3 0 1 1 -3,3 3,3 0 0 1 3,-3 z m 31,0 a 3,3 0 1 1 -3,3 3,3 0 0 1 3,-3 z m 31,0 a 3,3 0 1 1 -3,3 3,3 0 0 1 3,-3 z m 31,0 a 3,3 0 1 1 -3,3 3,3 0 0 1 3,-3 z m 31,0 a 3,3 0 1 1 -3,3 3,3 0 0 1 3,-3 z m 31,0 a 3,3 0 1 1 -3,3 3,3 0 0 1 3,-3 z m 31,0 a 3,3 0 1 1 -3,3 3,3 0 0 1 3,-3 z m 31,0 a 3,3 0 1 1 -3,3 3,3 0 0 1 3,-3 z M 5,351 a 3,3 0 1 1 -3,3 3,3 0 0 1 3,-3 z m 31,0 a 3,3 0 1 1 -3,3 3,3 0 0 1 3,-3 z m 31,0 a 3,3 0 1 1 -3,3 3,3 0 0 1 3,-3 z m 31,0 a 3,3 0 1 1 -3,3 3,3 0 0 1 3,-3 z m 31,0 a 3,3 0 1 1 -3,3 3,3 0 0 1 3,-3 z m 31,0 a 3,3 0 1 1 -3,3 3,3 0 0 1 3,-3 z m 31,0 a 3,3 0 1 1 -3,3 3,3 0 0 1 3,-3 z m 31,0 a 3,3 0 1 1 -3,3 3,3 0 0 1 3,-3 z m 31,0 a 3,3 0 1 1 -3,3 3,3 0 0 1 3,-3 z m 31,0 a 3,3 0 1 1 -3,3 3,3 0 0 1 3,-3 z m 31,0 a 3,3 0 1 1 -3,3 3,3 0 0 1 3,-3 z m 31,0 a 3,3 0 1 1 -3,3 3,3 0 0 1 3,-3 z M 5,392 a 3,3 0 1 1 -3,3 3,3 0 0 1 3,-3 z m 31,0 a 3,3 0 1 1 -3,3 3,3 0 0 1 3,-3 z m 31,0 a 3,3 0 1 1 -3,3 3,3 0 0 1 3,-3 z m 31,0 a 3,3 0 1 1 -3,3 3,3 0 0 1 3,-3 z m 31,0 a 3,3 0 1 1 -3,3 3,3 0 0 1 3,-3 z m 31,0 a 3,3 0 1 1 -3,3 3,3 0 0 1 3,-3 z m 31,0 a 3,3 0 1 1 -3,3 3,3 0 0 1 3,-3 z m 31,0 a 3,3 0 1 1 -3,3 3,3 0 0 1 3,-3 z m 31,0 a 3,3 0 1 1 -3,3 3,3 0 0 1 3,-3 z m 31,0 a 3,3 0 1 1 -3,3 3,3 0 0 1 3,-3 z m 31,0 a 3,3 0 1 1 -3,3 3,3 0 0 1 3,-3 z m 31,0 a 3,3 0 1 1 -3,3 3,3 0 0 1 3,-3 z M 5,433 a 3,3 0 1 1 -3,3 3,3 0 0 1 3,-3 z m 31,0 a 3,3 0 1 1 -3,3 3,3 0 0 1 3,-3 z m 31,0 a 3,3 0 1 1 -3,3 3,3 0 0 1 3,-3 z m 31,0 a 3,3 0 1 1 -3,3 3,3 0 0 1 3,-3 z m 31,0 a 3,3 0 1 1 -3,3 3,3 0 0 1 3,-3 z m 31,0 a 3,3 0 1 1 -3,3 3,3 0 0 1 3,-3 z m 31,0 a 3,3 0 1 1 -3,3 3,3 0 0 1 3,-3 z m 31,0 a 3,3 0 1 1 -3,3 3,3 0 0 1 3,-3 z m 31,0 a 3,3 0 1 1 -3,3 3,3 0 0 1 3,-3 z m 31,0 a 3,3 0 1 1 -3,3 3,3 0 0 1 3,-3 z m 31,0 a 3,3 0 1 1 -3,3 3,3 0 0 1 3,-3 z m 31,0 a 3,3 0 1 1 -3,3 3,3 0 0 1 3,-3 z M 5,474 a 3,3 0 1 1 -3,3 3,3 0 0 1 3,-3 z m 31,0 a 3,3 0 1 1 -3,3 3,3 0 0 1 3,-3 z m 31,0 a 3,3 0 1 1 -3,3 3,3 0 0 1 3,-3 z m 31,0 a 3,3 0 1 1 -3,3 3,3 0 0 1 3,-3 z m 31,0 a 3,3 0 1 1 -3,3 3,3 0 0 1 3,-3 z m 31,0 a 3,3 0 1 1 -3,3 3,3 0 0 1 3,-3 z m 31,0 a 3,3 0 1 1 -3,3 3,3 0 0 1 3,-3 z m 31,0 a 3,3 0 1 1 -3,3 3,3 0 0 1 3,-3 z m 31,0 a 3,3 0 1 1 -3,3 3,3 0 0 1 3,-3 z m 31,0 a 3,3 0 1 1 -3,3 3,3 0 0 1 3,-3 z m 31,0 a 3,3 0 1 1 -3,3 3,3 0 0 1 3,-3 z m 31,0 a 3,3 0 1 1 -3,3 3,3 0 0 1 3,-3 z M 5,515 a 3,3 0 1 1 -3,3 3,3 0 0 1 3,-3 z m 31,0 a 3,3 0 1 1 -3,3 3,3 0 0 1 3,-3 z m 31,0 a 3,3 0 1 1 -3,3 3,3 0 0 1 3,-3 z m 31,0 a 3,3 0 1 1 -3,3 3,3 0 0 1 3,-3 z m 31,0 a 3,3 0 1 1 -3,3 3,3 0 0 1 3,-3 z m 31,0 a 3,3 0 1 1 -3,3 3,3 0 0 1 3,-3 z m 31,0 a 3,3 0 1 1 -3,3 3,3 0 0 1 3,-3 z m 31,0 a 3,3 0 1 1 -3,3 3,3 0 0 1 3,-3 z m 31,0 a 3,3 0 1 1 -3,3 3,3 0 0 1 3,-3 z m 31,0 a 3,3 0 1 1 -3,3 3,3 0 0 1 3,-3 z m 31,0 a 3,3 0 1 1 -3,3 3,3 0 0 1 3,-3 z m 31,0 a 3,3 0 1 1 -3,3 3,3 0 0 1 3,-3 z M 5,556 a 3,3 0 1 1 -3,3 3,3 0 0 1 3,-3 z m 31,0 a 3,3 0 1 1 -3,3 3,3 0 0 1 3,-3 z m 31,0 a 3,3 0 1 1 -3,3 3,3 0 0 1 3,-3 z m 31,0 a 3,3 0 1 1 -3,3 3,3 0 0 1 3,-3 z m 31,0 a 3,3 0 1 1 -3,3 3,3 0 0 1 3,-3 z m 31,0 a 3,3 0 1 1 -3,3 3,3 0 0 1 3,-3 z m 31,0 a 3,3 0 1 1 -3,3 3,3 0 0 1 3,-3 z m 31,0 a 3,3 0 1 1 -3,3 3,3 0 0 1 3,-3 z m 31,0 a 3,3 0 1 1 -3,3 3,3 0 0 1 3,-3 z m 31,0 a 3,3 0 1 1 -3,3 3,3 0 0 1 3,-3 z m 31,0 a 3,3 0 1 1 -3,3 3,3 0 0 1 3,-3 z m 31,0 a 3,3 0 1 1 -3,3 3,3 0 0 1 3,-3 z M 19,289 a 3,3 0 1 1 -3,3 3,3 0 0 1 3,-3 z m 31,0 a 3,3 0 1 1 -3,3 3,3 0 0 1 3,-3 z m 31,0 a 3,3 0 1 1 -3,3 3,3 0 0 1 3,-3 z m 31,0 a 3,3 0 1 1 -3,3 3,3 0 0 1 3,-3 z m 31,0 a 3,3 0 1 1 -3,3 3,3 0 0 1 3,-3 z m 31,0 a 3,3 0 1 1 -3,3 3,3 0 0 1 3,-3 z m 31,0 a 3,3 0 1 1 -3,3 3,3 0 0 1 3,-3 z m 31,0 a 3,3 0 1 1 -3,3 3,3 0 0 1 3,-3 z m 31,0 a 3,3 0 1 1 -3,3 3,3 0 0 1 3,-3 z m 31,0 a 3,3 0 1 1 -3,3 3,3 0 0 1 3,-3 z m 31,0 a 3,3 0 1 1 -3,3 3,3 0 0 1 3,-3 z m 31,0 a 3,3 0 1 1 -3,3 3,3 0 0 1 3,-3 z M 19,330 a 3,3 0 1 1 -3,3 3,3 0 0 1 3,-3 z m 31,0 a 3,3 0 1 1 -3,3 3,3 0 0 1 3,-3 z m 31,0 a 3,3 0 1 1 -3,3 3,3 0 0 1 3,-3 z m 31,0 a 3,3 0 1 1 -3,3 3,3 0 0 1 3,-3 z m 31,0 a 3,3 0 1 1 -3,3 3,3 0 0 1 3,-3 z m 31,0 a 3,3 0 1 1 -3,3 3,3 0 0 1 3,-3 z m 31,0 a 3,3 0 1 1 -3,3 3,3 0 0 1 3,-3 z m 31,0 a 3,3 0 1 1 -3,3 3,3 0 0 1 3,-3 z m 31,0 a 3,3 0 1 1 -3,3 3,3 0 0 1 3,-3 z m 31,0 a 3,3 0 1 1 -3,3 3,3 0 0 1 3,-3 z m 31,0 a 3,3 0 1 1 -3,3 3,3 0 0 1 3,-3 z m 31,0 a 3,3 0 1 1 -3,3 3,3 0 0 1 3,-3 z M 19,371 a 3,3 0 1 1 -3,3 3,3 0 0 1 3,-3 z m 31,0 a 3,3 0 1 1 -3,3 3,3 0 0 1 3,-3 z m 31,0 a 3,3 0 1 1 -3,3 3,3 0 0 1 3,-3 z m 31,0 a 3,3 0 1 1 -3,3 3,3 0 0 1 3,-3 z m 31,0 a 3,3 0 1 1 -3,3 3,3 0 0 1 3,-3 z m 31,0 a 3,3 0 1 1 -3,3 3,3 0 0 1 3,-3 z m 31,0 a 3,3 0 1 1 -3,3 3,3 0 0 1 3,-3 z m 31,0 a 3,3 0 1 1 -3,3 3,3 0 0 1 3,-3 z m 31,0 a 3,3 0 1 1 -3,3 3,3 0 0 1 3,-3 z m 31,0 a 3,3 0 1 1 -3,3 3,3 0 0 1 3,-3 z m 31,0 a 3,3 0 1 1 -3,3 3,3 0 0 1 3,-3 z m 31,0 a 3,3 0 1 1 -3,3 3,3 0 0 1 3,-3 z M 19,412 a 3,3 0 1 1 -3,3 3,3 0 0 1 3,-3 z m 31,0 a 3,3 0 1 1 -3,3 3,3 0 0 1 3,-3 z m 31,0 a 3,3 0 1 1 -3,3 3,3 0 0 1 3,-3 z m 31,0 a 3,3 0 1 1 -3,3 3,3 0 0 1 3,-3 z m 31,0 a 3,3 0 1 1 -3,3 3,3 0 0 1 3,-3 z m 31,0 a 3,3 0 1 1 -3,3 3,3 0 0 1 3,-3 z m 31,0 a 3,3 0 1 1 -3,3 3,3 0 0 1 3,-3 z m 31,0 a 3,3 0 1 1 -3,3 3,3 0 0 1 3,-3 z m 31,0 a 3,3 0 1 1 -3,3 3,3 0 0 1 3,-3 z m 31,0 a 3,3 0 1 1 -3,3 3,3 0 0 1 3,-3 z m 31,0 a 3,3 0 1 1 -3,3 3,3 0 0 1 3,-3 z m 31,0 a 3,3 0 1 1 -3,3 3,3 0 0 1 3,-3 z M 19,453 a 3,3 0 1 1 -3,3 3,3 0 0 1 3,-3 z m 31,0 a 3,3 0 1 1 -3,3 3,3 0 0 1 3,-3 z m 31,0 a 3,3 0 1 1 -3,3 3,3 0 0 1 3,-3 z m 31,0 a 3,3 0 1 1 -3,3 3,3 0 0 1 3,-3 z m 31,0 a 3,3 0 1 1 -3,3 3,3 0 0 1 3,-3 z m 31,0 a 3,3 0 1 1 -3,3 3,3 0 0 1 3,-3 z m 31,0 a 3,3 0 1 1 -3,3 3,3 0 0 1 3,-3 z m 31,0 a 3,3 0 1 1 -3,3 3,3 0 0 1 3,-3 z m 31,0 a 3,3 0 1 1 -3,3 3,3 0 0 1 3,-3 z m 31,0 a 3,3 0 1 1 -3,3 3,3 0 0 1 3,-3 z m 31,0 a 3,3 0 1 1 -3,3 3,3 0 0 1 3,-3 z m 31,0 a 3,3 0 1 1 -3,3 3,3 0 0 1 3,-3 z M 19,494 a 3,3 0 1 1 -3,3 3,3 0 0 1 3,-3 z m 31,0 a 3,3 0 1 1 -3,3 3,3 0 0 1 3,-3 z m 31,0 a 3,3 0 1 1 -3,3 3,3 0 0 1 3,-3 z m 31,0 a 3,3 0 1 1 -3,3 3,3 0 0 1 3,-3 z m 31,0 a 3,3 0 1 1 -3,3 3,3 0 0 1 3,-3 z m 31,0 a 3,3 0 1 1 -3,3 3,3 0 0 1 3,-3 z m 31,0 a 3,3 0 1 1 -3,3 3,3 0 0 1 3,-3 z m 31,0 a 3,3 0 1 1 -3,3 3,3 0 0 1 3,-3 z m 31,0 a 3,3 0 1 1 -3,3 3,3 0 0 1 3,-3 z m 31,0 a 3,3 0 1 1 -3,3 3,3 0 0 1 3,-3 z m 31,0 a 3,3 0 1 1 -3,3 3,3 0 0 1 3,-3 z m 31,0 a 3,3 0 1 1 -3,3 3,3 0 0 1 3,-3 z M 19,535 a 3,3 0 1 1 -3,3 3,3 0 0 1 3,-3 z m 31,0 a 3,3 0 1 1 -3,3 3,3 0 0 1 3,-3 z m 31,0 a 3,3 0 1 1 -3,3 3,3 0 0 1 3,-3 z m 31,0 a 3,3 0 1 1 -3,3 3,3 0 0 1 3,-3 z m 31,0 a 3,3 0 1 1 -3,3 3,3 0 0 1 3,-3 z m 31,0 a 3,3 0 1 1 -3,3 3,3 0 0 1 3,-3 z m 31,0 a 3,3 0 1 1 -3,3 3,3 0 0 1 3,-3 z m 31,0 a 3,3 0 1 1 -3,3 3,3 0 0 1 3,-3 z m 31,0 a 3,3 0 1 1 -3,3 3,3 0 0 1 3,-3 z m 31,0 a 3,3 0 1 1 -3,3 3,3 0 0 1 3,-3 z m 31,0 a 3,3 0 1 1 -3,3 3,3 0 0 1 3,-3 z m 31,0 a 3,3 0 1 1 -3,3 3,3 0 0 1 3,-3 z M 19,310 a 3,3 0 1 1 -3,3 3,3 0 0 1 3,-3 z m 31,0 a 3,3 0 1 1 -3,3 3,3 0 0 1 3,-3 z m 31,0 a 3,3 0 1 1 -3,3 3,3 0 0 1 3,-3 z m 31,0 a 3,3 0 1 1 -3,3 3,3 0 0 1 3,-3 z m 31,0 a 3,3 0 1 1 -3,3 3,3 0 0 1 3,-3 z m 31,0 a 3,3 0 1 1 -3,3 3,3 0 0 1 3,-3 z m 31,0 a 3,3 0 1 1 -3,3 3,3 0 0 1 3,-3 z m 31,0 a 3,3 0 1 1 -3,3 3,3 0 0 1 3,-3 z m 31,0 a 3,3 0 1 1 -3,3 3,3 0 0 1 3,-3 z m 31,0 a 3,3 0 1 1 -3,3 3,3 0 0 1 3,-3 z m 31,0 a 3,3 0 1 1 -3,3 3,3 0 0 1 3,-3 z m 31,0 a 3,3 0 1 1 -3,3 3,3 0 0 1 3,-3 z M 19,351 a 3,3 0 1 1 -3,3 3,3 0 0 1 3,-3 z m 31,0 a 3,3 0 1 1 -3,3 3,3 0 0 1 3,-3 z m 31,0 a 3,3 0 1 1 -3,3 3,3 0 0 1 3,-3 z m 31,0 a 3,3 0 1 1 -3,3 3,3 0 0 1 3,-3 z m 31,0 a 3,3 0 1 1 -3,3 3,3 0 0 1 3,-3 z m 31,0 a 3,3 0 1 1 -3,3 3,3 0 0 1 3,-3 z m 31,0 a 3,3 0 1 1 -3,3 3,3 0 0 1 3,-3 z m 31,0 a 3,3 0 1 1 -3,3 3,3 0 0 1 3,-3 z m 31,0 a 3,3 0 1 1 -3,3 3,3 0 0 1 3,-3 z m 31,0 a 3,3 0 1 1 -3,3 3,3 0 0 1 3,-3 z m 31,0 a 3,3 0 1 1 -3,3 3,3 0 0 1 3,-3 z m 31,0 a 3,3 0 1 1 -3,3 3,3 0 0 1 3,-3 z M 19,392 a 3,3 0 1 1 -3,3 3,3 0 0 1 3,-3 z m 31,0 a 3,3 0 1 1 -3,3 3,3 0 0 1 3,-3 z m 31,0 a 3,3 0 1 1 -3,3 3,3 0 0 1 3,-3 z m 31,0 a 3,3 0 1 1 -3,3 3,3 0 0 1 3,-3 z m 31,0 a 3,3 0 1 1 -3,3 3,3 0 0 1 3,-3 z m 31,0 a 3,3 0 1 1 -3,3 3,3 0 0 1 3,-3 z m 31,0 a 3,3 0 1 1 -3,3 3,3 0 0 1 3,-3 z m 31,0 a 3,3 0 1 1 -3,3 3,3 0 0 1 3,-3 z m 31,0 a 3,3 0 1 1 -3,3 3,3 0 0 1 3,-3 z m 31,0 a 3,3 0 1 1 -3,3 3,3 0 0 1 3,-3 z m 31,0 a 3,3 0 1 1 -3,3 3,3 0 0 1 3,-3 z m 31,0 a 3,3 0 1 1 -3,3 3,3 0 0 1 3,-3 z M 19,433 a 3,3 0 1 1 -3,3 3,3 0 0 1 3,-3 z m 31,0 a 3,3 0 1 1 -3,3 3,3 0 0 1 3,-3 z m 31,0 a 3,3 0 1 1 -3,3 3,3 0 0 1 3,-3 z m 31,0 a 3,3 0 1 1 -3,3 3,3 0 0 1 3,-3 z m 31,0 a 3,3 0 1 1 -3,3 3,3 0 0 1 3,-3 z m 31,0 a 3,3 0 1 1 -3,3 3,3 0 0 1 3,-3 z m 31,0 a 3,3 0 1 1 -3,3 3,3 0 0 1 3,-3 z m 31,0 a 3,3 0 1 1 -3,3 3,3 0 0 1 3,-3 z m 31,0 a 3,3 0 1 1 -3,3 3,3 0 0 1 3,-3 z m 31,0 a 3,3 0 1 1 -3,3 3,3 0 0 1 3,-3 z m 31,0 a 3,3 0 1 1 -3,3 3,3 0 0 1 3,-3 z m 31,0 a 3,3 0 1 1 -3,3 3,3 0 0 1 3,-3 z M 19,474 a 3,3 0 1 1 -3,3 3,3 0 0 1 3,-3 z m 31,0 a 3,3 0 1 1 -3,3 3,3 0 0 1 3,-3 z m 31,0 a 3,3 0 1 1 -3,3 3,3 0 0 1 3,-3 z m 31,0 a 3,3 0 1 1 -3,3 3,3 0 0 1 3,-3 z m 31,0 a 3,3 0 1 1 -3,3 3,3 0 0 1 3,-3 z m 31,0 a 3,3 0 1 1 -3,3 3,3 0 0 1 3,-3 z m 31,0 a 3,3 0 1 1 -3,3 3,3 0 0 1 3,-3 z m 31,0 a 3,3 0 1 1 -3,3 3,3 0 0 1 3,-3 z m 31,0 a 3,3 0 1 1 -3,3 3,3 0 0 1 3,-3 z m 31,0 a 3,3 0 1 1 -3,3 3,3 0 0 1 3,-3 z m 31,0 a 3,3 0 1 1 -3,3 3,3 0 0 1 3,-3 z m 31,0 a 3,3 0 1 1 -3,3 3,3 0 0 1 3,-3 z M 19,515 a 3,3 0 1 1 -3,3 3,3 0 0 1 3,-3 z m 31,0 a 3,3 0 1 1 -3,3 3,3 0 0 1 3,-3 z m 31,0 a 3,3 0 1 1 -3,3 3,3 0 0 1 3,-3 z m 31,0 a 3,3 0 1 1 -3,3 3,3 0 0 1 3,-3 z m 31,0 a 3,3 0 1 1 -3,3 3,3 0 0 1 3,-3 z m 31,0 a 3,3 0 1 1 -3,3 3,3 0 0 1 3,-3 z m 31,0 a 3,3 0 1 1 -3,3 3,3 0 0 1 3,-3 z m 31,0 a 3,3 0 1 1 -3,3 3,3 0 0 1 3,-3 z m 31,0 a 3,3 0 1 1 -3,3 3,3 0 0 1 3,-3 z m 31,0 a 3,3 0 1 1 -3,3 3,3 0 0 1 3,-3 z m 31,0 a 3,3 0 1 1 -3,3 3,3 0 0 1 3,-3 z m 31,0 a 3,3 0 1 1 -3,3 3,3 0 0 1 3,-3 z M 19,556 a 3,3 0 1 1 -3,3 3,3 0 0 1 3,-3 z m 31,0 a 3,3 0 1 1 -3,3 3,3 0 0 1 3,-3 z m 31,0 a 3,3 0 1 1 -3,3 3,3 0 0 1 3,-3 z m 31,0 a 3,3 0 1 1 -3,3 3,3 0 0 1 3,-3 z m 31,0 a 3,3 0 1 1 -3,3 3,3 0 0 1 3,-3 z m 31,0 a 3,3 0 1 1 -3,3 3,3 0 0 1 3,-3 z m 31,0 a 3,3 0 1 1 -3,3 3,3 0 0 1 3,-3 z m 31,0 a 3,3 0 1 1 -3,3 3,3 0 0 1 3,-3 z m 31,0 a 3,3 0 1 1 -3,3 3,3 0 0 1 3,-3 z m 31,0 a 3,3 0 1 1 -3,3 3,3 0 0 1 3,-3 z m 31,0 a 3,3 0 1 1 -3,3 3,3 0 0 1 3,-3 z m 31,0 a 3,3 0 1 1 -3,3 3,3 0 0 1 3,-3 z" />
</svg>
