<?xml version="1.0" encoding="UTF-8" standalone="no"?>
<svg
   xmlns:dc="http://purl.org/dc/elements/1.1/"
   xmlns:cc="http://creativecommons.org/ns#"
   xmlns:rdf="http://www.w3.org/1999/02/22-rdf-syntax-ns#"
   xmlns:svg="http://www.w3.org/2000/svg"
   xmlns="http://www.w3.org/2000/svg"
   xmlns:sodipodi="http://sodipodi.sourceforge.net/DTD/sodipodi-0.dtd"
   xmlns:inkscape="http://www.inkscape.org/namespaces/inkscape"
   enable-background="new 0 0 512 512"
   id="Layer_1"
   version="1.1"
   viewBox="0 0 22 22"
   xml:space="preserve"
   sodipodi:docname="FB.svg"
   width="22"
   height="22"
   inkscape:version="1.0.1 (3bc2e813f5, 2020-09-07)"><metadata
     id="metadata853"><rdf:RDF><cc:Work
         rdf:about=""><dc:format>image/svg+xml</dc:format><dc:type
           rdf:resource="http://purl.org/dc/dcmitype/StillImage" /><dc:title></dc:title></cc:Work></rdf:RDF></metadata><defs
     id="defs851" /><sodipodi:namedview
     pagecolor="#ffffff"
     bordercolor="#666666"
     borderopacity="1"
     objecttolerance="10"
     gridtolerance="10"
     guidetolerance="10"
     inkscape:pageopacity="0"
     inkscape:pageshadow="2"
     inkscape:window-width="1920"
     inkscape:window-height="1017"
     id="namedview849"
     showgrid="false"
     inkscape:zoom="18.782524"
     inkscape:cx="29.578857"
     inkscape:cy="12.946536"
     inkscape:window-x="-8"
     inkscape:window-y="-8"
     inkscape:window-maximized="1"
     inkscape:current-layer="g846" /><g
     id="g846"><path
       d="m 12.834593,21.803786 c -0.107268,0.0042 -0.175832,0.01289 -0.244447,0.01289 -1.466664,0 -2.929034,-0.0042 -4.395712,0.0042 -0.205847,0 -0.261595,-0.05575 -0.261595,-0.261598 0.0041,-3.41364 0.0041,-6.831571 0.0041,-10.24521 0,-0.09006 0,-0.180117 0,-0.295906 -0.797668,0 -1.573881,0 -2.362961,0 0,-1.217932 0,-2.414423 0,-3.6452196 0.08148,0 0.158671,0 0.231581,0 0.643275,0 1.286551,-0.00425 1.929813,0.00425 0.162965,0 0.20586,-0.047175 0.20586,-0.2058471 -0.0082,-0.9563345 -0.0082,-1.9169572 0,-2.8732911 0.0041,-0.6690051 0.111525,-1.320856 0.420268,-1.9255336 0.441708,-0.8534102 1.140732,-1.40662602 2.024163,-1.74970532 0.720478,-0.2830406 1.479531,-0.3859644 2.242891,-0.39883 1.243655,-0.017154 2.487325,-0.00857 3.73098,-0.012867 0.115778,0 0.210141,-0.0043 0.210141,0.1586743 -0.0041,1.17933572 -0.0041,2.35867132 -0.0041,3.53800712 0,0.012867 -0.0041,0.025732 -0.0214,0.081481 -0.07284,0 -0.154378,0 -0.235861,0 -0.771933,0 -1.543867,-0.0043 -2.315786,0 -0.446002,0 -0.806241,0.1801168 -1.033529,0.5703696 -0.06859,0.1157893 -0.111525,0.2658867 -0.111525,0.4031184 -0.01234,0.7290439 0,1.4580879 -0.0082,2.1871315 0,0.1715406 0.05144,0.2187142 0.218713,0.2187142 1.072131,-0.00864 2.144248,-0.00425 3.216377,-0.00425 0.08574,0 0.167246,0 0.313065,0 -0.150098,1.2265096 -0.295917,2.4272876 -0.446015,3.6409316 -1.114999,0 -2.199996,0 -3.306421,0 0,3.606622 0,7.191802 0,10.798425 z"
       id="path844"
       style="stroke-width:0.0428849" /></g></svg>
