<?xml version="1.0" encoding="UTF-8" standalone="no"?>
<svg
   xmlns:dc="http://purl.org/dc/elements/1.1/"
   xmlns:cc="http://creativecommons.org/ns#"
   xmlns:rdf="http://www.w3.org/1999/02/22-rdf-syntax-ns#"
   xmlns:svg="http://www.w3.org/2000/svg"
   xmlns="http://www.w3.org/2000/svg"
   xmlns:sodipodi="http://sodipodi.sourceforge.net/DTD/sodipodi-0.dtd"
   xmlns:inkscape="http://www.inkscape.org/namespaces/inkscape"
   id="Bold"
   enable-background="new 0 0 24 24"
   height="18"
   viewBox="0 0 1.171875 0.84375"
   width="25"
   version="1.1"
   sodipodi:docname="google-plus.svg"
   inkscape:version="1.0.1 (3bc2e813f5, 2020-09-07)">
  <metadata
     id="metadata853">
    <rdf:RDF>
      <cc:Work
         rdf:about="">
        <dc:format>image/svg+xml</dc:format>
        <dc:type
           rdf:resource="http://purl.org/dc/dcmitype/StillImage" />
        <dc:title></dc:title>
      </cc:Work>
    </rdf:RDF>
  </metadata>
  <defs
     id="defs851" />
  <sodipodi:namedview
     pagecolor="#ffffff"
     bordercolor="#666666"
     borderopacity="1"
     objecttolerance="10"
     gridtolerance="10"
     guidetolerance="10"
     inkscape:pageopacity="0"
     inkscape:pageshadow="2"
     inkscape:window-width="1920"
     inkscape:window-height="1017"
     id="namedview849"
     showgrid="false"
     inkscape:zoom="13.28125"
     inkscape:cx="23.267404"
     inkscape:cy="18.768433"
     inkscape:window-x="-8"
     inkscape:window-y="-8"
     inkscape:window-maximized="1"
     inkscape:current-layer="Bold" />
  <path
     d="M 1.0526388,0.31080882 H 0.9471483 v 0.1050082 H 0.84214 V 0.52130758 H 0.9471482 V 0.62631579 H 1.0526388 V 0.52130758 H 1.1576471 V 0.41581702 H 1.0526388 Z"
     id="path844"
     style="stroke-width:0.0482353" />
  <path
     d="m 0.36176471,0.81727941 c 0.20876235,0 0.34743882,-0.14653883 0.34743882,-0.35337176 0,-0.0236836 -0.00246,-0.0419647 -0.005885,-0.0601976 H 0.36181294 V 0.52806059 H 0.56715058 C 0.55875758,0.58087819 0.50497528,0.6840053 0.36181294,0.6840053 0.23847529,0.6840053 0.13776,0.58184294 0.13776,0.45551472 c 0,-0.12632824 0.10066708,-0.22853882 0.22405294,-0.22853882 0.0705682,0 0.11745295,0.0300989 0.14412706,0.05576 L 0.6041471,0.1884841 C 0.54091058,0.12929942 0.45948941,0.09375 0.36176471,0.09375 0.16187765,0.09375 0,0.25562765 0,0.45551471 c 0,0.19988705 0.16187765,0.3617647 0.36176471,0.3617647 z"
     id="path846"
     style="stroke-width:0.0482353" />
</svg>
