<?xml version="1.0" encoding="UTF-8" standalone="no"?>
<!-- Created with Inkscape (http://www.inkscape.org/) -->

<svg
   xmlns:dc="http://purl.org/dc/elements/1.1/"
   xmlns:cc="http://creativecommons.org/ns#"
   xmlns:rdf="http://www.w3.org/1999/02/22-rdf-syntax-ns#"
   xmlns:svg="http://www.w3.org/2000/svg"
   xmlns="http://www.w3.org/2000/svg"
   xmlns:sodipodi="http://sodipodi.sourceforge.net/DTD/sodipodi-0.dtd"
   xmlns:inkscape="http://www.inkscape.org/namespaces/inkscape"
   width="180"
   height="85"
   viewBox="0 0 47.624999 22.489582"
   version="1.1"
   id="svg4588"
   inkscape:version="0.92.4 (5da689c313, 2019-01-14)"
   sodipodi:docname="logo.svg">
  <defs
     id="defs4582">
    <inkscape:path-effect
       effect="bspline"
       id="path-effect4572"
       is_visible="true"
       weight="33.333333"
       steps="2"
       helper_size="0"
       apply_no_weight="true"
       apply_with_weight="true"
       only_selected="false" />
    <inkscape:path-effect
       effect="bspline"
       id="path-effect4556"
       is_visible="true"
       weight="33.333333"
       steps="2"
       helper_size="0"
       apply_no_weight="true"
       apply_with_weight="true"
       only_selected="false" />
    <style
       id="style867">
      .cls-1 {
        font-size: 48px;
        fill: #e0c4b1;
        text-anchor: middle;
        font-family: &quot;Dancing Script&quot;;
      }
    </style>
    <style
       id="style35">
      .cls-1 {
        font-size: 48px;
        fill: #e0c4b1;
        text-anchor: middle;
        font-family: &quot;Dancing Script&quot;;
      }
    </style>
  </defs>
  <sodipodi:namedview
     id="base"
     pagecolor="#ffffff"
     bordercolor="#666666"
     borderopacity="1.0"
     inkscape:pageopacity="0.0"
     inkscape:pageshadow="2"
     inkscape:zoom="3.959798"
     inkscape:cx="106.14877"
     inkscape:cy="36.357651"
     inkscape:document-units="px"
     inkscape:current-layer="ashion"
     showgrid="false"
     units="px"
     inkscape:window-width="1366"
     inkscape:window-height="705"
     inkscape:window-x="-8"
     inkscape:window-y="-8"
     inkscape:window-maximized="1" />
  <metadata
     id="metadata4585">
    <rdf:RDF>
      <cc:Work
         rdf:about="">
        <dc:format>image/svg+xml</dc:format>
        <dc:type
           rdf:resource="http://purl.org/dc/dcmitype/StillImage" />
        <dc:title></dc:title>
      </cc:Work>
    </rdf:RDF>
  </metadata>
  <g
     inkscape:label="Layer 1"
     inkscape:groupmode="layer"
     id="layer1"
     transform="translate(0,-274.51042)">
    <path
       sodipodi:nodetypes="cccccccccccccccccccccccccccccccccccccccccccc"
       style="display:inline;fill:#e0c4b1;fill-opacity:1;stroke:#e0c4b1;stroke-width:1px;stroke-linecap:butt;stroke-linejoin:miter;stroke-opacity:1"
       d="m 39.41364,9.6842001 c -0.561628,0.8387289 -1.200699,2.1895699 -1.59496,3.8037099 -0.394262,1.614139 -0.54323,3.491447 -1.755359,4.769775 -1.212129,1.278327 -3.488526,1.956956 -5.289068,2.773438 -1.800543,0.816481 -3.221877,1.840982 -3.885616,2.603798 -0.663739,0.762815 -0.77786,1.504604 -0.831125,2.143285 -0.05326,0.638682 -0.05326,1.222691 0.127016,2.262551 0.180281,1.03986 0.564043,2.629734 1.942875,5.064288 1.378832,2.434554 3.761577,5.757288 2.804743,7.326439 -0.956834,1.569151 -5.254776,1.381852 -7.404599,1.288165 -2.149823,-0.09369 -2.149823,-0.09369 -2.468941,0.704107 -0.319117,0.797794 -0.956219,2.39055 -1.089083,3.216075 -0.132864,0.825526 0.239116,0.878666 2.070154,0.825582 1.831039,-0.05308 5.135541,-0.212979 6.900794,-0.386517 1.765252,-0.173539 2.063644,-0.412252 2.11664,0.646394 0.05299,1.058647 -0.107199,3.408156 -0.213555,4.870686 -0.106356,1.46253 -0.15951,2.047226 -0.532267,3.485102 -0.372757,1.437877 -1.062798,3.72032 -1.557315,5.161607 -0.494518,1.441287 -0.834704,2.12166 -1.090304,3.552522 -0.2556,1.430862 -0.446447,3.645334 -0.542152,5.702856 -0.0957,2.057522 -0.0957,4.063129 0.469873,5.271459 0.565579,1.208331 1.838062,1.920241 4.131743,2.10001 2.293682,0.179769 5.821912,-0.145914 9.568473,-0.07995 3.74656,0.06597 7.783289,0.516777 9.782172,-0.567127 1.998882,-1.083903 1.96081,-3.701435 1.644085,-6.505886 -0.316725,-2.804451 -0.911962,-5.796033 -1.209505,-7.291439 -0.297542,-1.495406 -0.297542,-1.495406 -0.53982,-2.386779 -0.242278,-0.891372 -0.727808,-2.677704 -1.179808,-4.645354 -0.452,-1.967651 -0.871082,-4.118655 -0.974151,-6.04494 -0.103069,-1.926286 0.109704,-3.628469 0.215991,-4.478769 0.106288,-0.850301 0.106288,-0.850301 1.692947,-1.294283 1.58666,-0.443982 4.769655,-1.334655 6.817098,-1.837677 2.047444,-0.503022 2.965815,-0.620229 3.500164,-1.085128 0.53435,-0.464899 0.687677,-1.277594 0.661949,-2.001251 -0.02573,-0.723658 -0.229612,-1.355939 -1.975123,-1.314176 -1.745511,0.04176 -5.026398,0.757703 -6.783126,0.973656 -1.756727,0.215953 -1.984274,-0.06864 -1.7786,-1.090304 0.205674,-1.021668 0.843051,-2.774458 1.420542,-4.881753 0.577491,-2.107295 1.119193,-4.684391 0.765803,-6.745909 C 52.998835,23.530949 51.7631,21.925398 50.017359,20.951204 48.271619,19.97701 46.015633,19.634145 44.56106,18.30995 43.106487,16.985756 42.455396,14.681899 41.985968,12.83204 41.516541,10.98218 41.228926,9.587141 40.843837,9.0528257 40.458749,8.5185104 39.975267,8.8454711 39.41364,9.6842001 Z"
       id="path4570"
       inkscape:connector-curvature="0"
       inkscape:path-effect="#path-effect4572"
       inkscape:original-d="m 39.490514,9.1732915 c -0.638071,1.3498415 -1.277142,2.7006825 -1.917213,4.0525225 -0.147968,1.876308 -0.296936,3.753616 -0.446904,5.631924 -2.275397,0.677629 -4.551794,1.356258 -6.82919,2.035887 -1.32363,0.953795 -2.744964,1.978296 -3.97389,2.864388 -0.105603,0.638618 -0.211714,1.381639 -0.31907,2.073959 0.001,0.584916 0.001,1.168925 0,1.754887 0.373885,1.490542 0.745497,3.083349 1.116746,4.626523 2.386376,3.325404 4.769121,6.648138 7.152805,9.974576 -4.298441,-0.188364 -8.596383,-0.375664 -12.896074,-0.561996 10e-4,-0.001 10e-4,-0.001 0,0 -0.637718,1.595795 -1.27482,3.188551 -1.914423,4.786058 0.373518,0.05222 0.745498,0.105356 1.116747,0.159535 3.290622,-0.160176 6.595124,-0.320071 9.891186,-0.478606 0.213646,-0.213646 0.532784,-0.426427 0.797676,-0.638141 -0.157877,2.329192 -0.318071,4.678701 -0.478606,7.019551 -0.0522,0.584229 -0.105357,1.168925 -0.159535,1.754888 -0.691598,2.289901 -1.381639,4.572344 -2.073958,6.860016 -0.318237,0.584268 -0.637141,1.275282 -0.957212,1.914423 -0.190622,2.222461 -0.381469,4.436933 -0.573786,6.657864 0.001,1.894035 0.001,3.899642 0,5.683459 1.131821,0.631656 2.404304,1.343567 3.604956,2.01685 3.385964,-0.313458 6.914194,-0.639141 10.369791,-0.957212 4.03773,0.449809 8.074459,0.900618 12.110188,1.352427 -0.03707,-2.618533 -0.07514,-5.236065 -0.114217,-7.852598 -0.594238,-2.992584 -1.189476,-5.984165 -1.785714,-8.974748 0.001,-10e-4 0.001,-10e-4 0,0 -0.483371,-1.783067 -0.968902,-3.569399 -1.454853,-5.352599 -0.418082,-2.152003 -0.837164,-4.303007 -1.257246,-6.45301 0.213654,-1.702236 0.426427,-3.404419 0.638141,-5.105128 10e-4,-10e-4 10e-4,-10e-4 0,0 3.173132,-0.888632 6.356127,-1.779305 9.532692,-2.667457 0.918399,-0.118083 1.83677,-0.235289 2.752198,-0.351248 0.154164,-0.812833 0.307491,-1.625528 0.459981,-2.438083 -0.203532,-0.635294 -0.407415,-1.267575 -0.612947,-1.90087 -3.286851,0.716461 -6.567738,1.432402 -9.853113,2.150103 -0.226819,-0.285928 -0.454366,-0.570516 -0.683458,-0.854785 0.639903,-1.757986 1.277281,-3.510776 1.914422,-5.264663 0.518036,-2.460748 1.059738,-5.037844 1.588106,-7.555266 -1.234794,-1.606628 -2.470529,-3.212179 -3.707382,-4.816884 -2.255568,-0.343953 -4.511554,-0.686819 -6.76938,-1.028812 -0.650303,-2.305606 -1.301395,-4.609463 -1.953592,-6.912695 -0.286688,-1.396389 -0.574303,-2.7914286 -0.863063,-4.1861671 -0.482724,0.3261244 -0.966206,0.653085 -1.450809,0.9811276 z"
       transform="matrix(0.26458333,0,0,0.26458333,-0.00549966,276.49581)" />
    <path
       style="color:#000000;font-style:normal;font-variant:normal;font-weight:normal;font-stretch:normal;font-size:medium;line-height:normal;font-family:sans-serif;font-variant-ligatures:normal;font-variant-position:normal;font-variant-caps:normal;font-variant-numeric:normal;font-variant-alternates:normal;font-feature-settings:normal;text-indent:0;text-align:start;text-decoration:none;text-decoration-line:none;text-decoration-style:solid;text-decoration-color:#000000;letter-spacing:normal;word-spacing:normal;text-transform:none;writing-mode:lr-tb;direction:ltr;text-orientation:mixed;dominant-baseline:auto;baseline-shift:baseline;text-anchor:start;white-space:normal;shape-padding:0;clip-rule:nonzero;display:inline;overflow:visible;visibility:visible;opacity:1;isolation:auto;mix-blend-mode:normal;color-interpolation:sRGB;color-interpolation-filters:linearRGB;solid-color:#000000;solid-opacity:1;vector-effect:none;fill:#e0c4b1;fill-opacity:1;fill-rule:nonzero;stroke:#e0c4b1;stroke-width:0.26458335px;stroke-linecap:butt;stroke-linejoin:miter;stroke-miterlimit:4;stroke-dasharray:none;stroke-dashoffset:0;stroke-opacity:1;color-rendering:auto;image-rendering:auto;shape-rendering:auto;text-rendering:auto;enable-background:accumulate"
       d="m 10.187565,278.65486 -0.09269,0.41855 c -0.0067,0.21239 -0.1520241,0.70876 -0.1591055,0.92173 l 0.3513245,-0.40035 0.03148,-0.038 c 0.138765,-0.0279 0.277286,-0.0558 0.415625,-0.0829 l 0.321045,0.29702 -0.214512,-0.42933 c -0.0034,-0.18381 -0.0069,-0.36759 -0.01084,-0.55084 l -0.003,-0.12742 -0.127416,-0.002 c -0.127181,-0.002 -0.254763,-0.003 -0.382602,-0.005 z m 0.255467,0.26805 c 0.04173,10e-4 0.08319,9.9e-4 0.124793,0.002 0.0021,0.10365 0.0043,0.20759 0.0063,0.31142 -0.04761,0.01 -0.118934,-0.0215 -0.166758,-0.0126 0.0042,-0.11424 -0.293199,0.0907 -0.289209,-0.0234 z"
       id="path4566"
       inkscape:connector-curvature="0"
       inkscape:transform-center-x="0.49555626"
       inkscape:transform-center-y="-0.29995121"
       sodipodi:nodetypes="ccccccccccccccccccc" />
    <path
       id="path4554"
       transform="matrix(0.26458334,0,0,0.26458334,-0.07381899,276.26056)"
       style="display:inline;fill:#e0c4b1;fill-opacity:1;stroke:#e0c4b1;stroke-width:1px;stroke-linecap:butt;stroke-linejoin:miter;stroke-opacity:1"
       inkscape:path-effect="#path-effect4556"
       inkscape:original-d="M 0.22561692,15.955347 C 2.1819636,14.299823 4.1373102,12.645298 6.0916569,10.991774 17.066639,8.9613393 28.052704,6.9296698 39.031727,4.9001175 43.966359,4.3976869 48.901019,3.8961518 53.834166,3.3956689 58.179474,3.1424936 62.523782,2.8903184 66.867089,2.6391431 c 2.90586,-0.3754265 5.810719,-0.7498529 8.71458,-1.1232794 4.135878,-0.093457 8.27362,-0.1859785 12.40893,-0.2774677 6.796662,0.016284 13.592321,0.033567 20.386981,0.051851 -1.2948,1.2354057 -2.58973,2.4709722 -3.88742,3.7092183 10e-4,-10e-4 10e-4,-10e-4 0,0 C 100.12099,4.7445376 95.759371,4.4911067 91.379658,4.2376826 88.843459,4.4655251 86.316163,4.6934744 83.782916,4.9228703 76.76949,5.2372859 69.756286,5.5526465 62.739638,5.869117 58.221468,6.3724671 53.703872,6.8766414 49.184489,7.3819036 46.327031,7.7570165 43.46986,8.13296 40.611046,8.5099882 c -4.28739,0.8265841 -8.572443,1.6535238 -12.860165,2.4817858 -2.230811,0.303108 -4.460465,0.606922 -6.693638,0.912079 -2.254174,0.360227 -4.507408,0.721143 -6.762614,1.083215 -0.928389,0.311576 -1.857777,0.624151 -2.788166,0.937726 -0.977744,0.224864 -1.9543467,0.450234 -2.93302,0.676851 -0.6804436,0.322236 -1.3602601,0.6447 -2.0418901,0.96855 C 5.6338646,16.148812 4.736883,16.727329 3.8354877,17.309048 3.0076542,17.082003 2.1819636,16.856814 1.3537015,16.632197 0.97836563,16.405396 0.60264512,16.179964 0.22561692,15.955347 Z"
       d="M 1.3919893,15.240526 C 2.1820393,14.299912 4.1373862,12.645388 10.602085,10.803758 17.066785,8.9621272 28.05285,6.9304577 36.00965,5.6645169 43.966449,4.3985761 48.901109,3.897041 53.540319,3.5202367 58.179528,3.1434324 62.523836,2.8912571 66.148448,2.5779153 c 3.624611,-0.3133418 6.52947,-0.6877681 10.049296,-0.9211499 3.519825,-0.2333818 7.657567,-0.325903 13.123541,-0.3634931 5.465973,-0.03759 12.261635,-0.020306 15.011575,0.6060474 2.74994,0.6263539 1.45501,1.861922 0.80616,2.4810338 -0.64886,0.6191118 -0.64886,0.6191118 -2.83348,0.4921752 C 100.12093,4.7455921 95.75931,4.4921613 92.301425,4.4792944 88.84354,4.4664276 86.316244,4.6943769 81.542889,4.9663079 76.769533,5.238239 69.756329,5.5535996 63.988947,5.963472 58.221566,6.3733445 53.70397,6.8775189 50.015557,7.3176945 46.327143,7.7578701 43.469972,8.1338137 39.896889,8.7355819 36.323806,9.3373501 32.038753,10.16429 28.779469,10.73001 c -3.259283,0.56572 -5.488937,0.869534 -7.732603,1.202211 -2.243666,0.332678 -4.4969,0.693594 -6.088663,1.030306 -1.591763,0.336713 -2.521151,0.649288 -3.475233,0.918575 -0.954082,0.269286 -1.9306852,0.494656 -2.7602261,0.768932 -0.829541,0.274276 -1.5093574,0.59674 -2.2990374,1.047885 C 5.6340266,16.149063 4.7370449,16.72758 3.8721881,16.905384 3.0073313,17.083187 2.1816405,16.857999 1.5796502,16.632285 0.97765987,16.406572 0.60193938,16.18114 1.3919893,15.240526 Z"
       inkscape:connector-curvature="0" />
    <flowRoot
       xml:space="preserve"
       id="flowRoot5196"
       style="font-style:normal;font-variant:normal;font-weight:bold;font-stretch:normal;font-size:24px;line-height:1.25;font-family:'Segoe Print';-inkscape-font-specification:'Segoe Print Bold';letter-spacing:0px;word-spacing:0px;fill:#e0c4b1;fill-opacity:1;stroke:none"
       transform="matrix(0.26458334,0,0,0.26458334,0,276.36248)"><flowRegion
         id="flowRegion5198"
         style="font-size:24px;fill:#e0c4b1;fill-opacity:1"><rect
           id="rect5200"
           width="116.92516"
           height="27.779196"
           x="66.922607"
           y="17.895924"
           style="font-size:24px;fill:#e0c4b1;fill-opacity:1" /></flowRegion><flowPara
         id="flowPara5202"
         style="font-style:normal;font-variant:normal;font-weight:bold;font-stretch:normal;font-size:24px;font-family:'Vladimir Script';-inkscape-font-specification:'Vladimir Script Bold'">FASION</flowPara></flowRoot>    <flowRoot
       xml:space="preserve"
       id="flowRoot5204"
       style="font-style:normal;font-variant:normal;font-weight:bold;font-stretch:normal;font-size:18.66666603px;line-height:1.25;font-family:'Palatino Linotype';-inkscape-font-specification:'Palatino Linotype Bold';letter-spacing:0px;word-spacing:0px;fill:#000000;fill-opacity:1;stroke:none"
       transform="matrix(0.26458334,0,0,0.26458334,0,276.36248)"><flowRegion
         id="flowRegion5206"
         style="font-style:normal;font-variant:normal;font-weight:bold;font-stretch:normal;font-family:'Palatino Linotype';-inkscape-font-specification:'Palatino Linotype Bold'"><rect
           id="rect5208"
           width="119.70308"
           height="66.670067"
           x="71.973366"
           y="11.329932"
           style="font-style:normal;font-variant:normal;font-weight:bold;font-stretch:normal;font-family:'Palatino Linotype';-inkscape-font-specification:'Palatino Linotype Bold'" /></flowRegion><flowPara
         id="flowPara5210"
         style="font-style:normal;font-variant:normal;font-weight:bold;font-stretch:normal;font-size:29.33333206px;font-family:'Palatino Linotype';-inkscape-font-specification:'Palatino Linotype Bold'">FASHION</flowPara></flowRoot>    <flowRoot
       xml:space="preserve"
       id="flowRoot5212"
       style="font-style:normal;font-variant:normal;font-weight:bold;font-stretch:normal;font-size:18.66666603px;line-height:1.25;font-family:'Segoe Script';-inkscape-font-specification:'Segoe Script Bold';letter-spacing:0px;word-spacing:0px;fill:#000000;fill-opacity:1;stroke:none"><flowRegion
         id="flowRegion5214"><rect
           id="rect5216"
           width="111.8744"
           height="43.689098"
           x="70.458138"
           y="24.209377" /></flowRegion><flowPara
         id="flowPara5218" /></flowRoot>    <g
       aria-label="S T Y L I S T "
       transform="matrix(0.22613891,0,0,0.26227776,1.3276482,278.26319)"
       style="font-style:normal;font-variant:normal;font-weight:normal;font-stretch:normal;font-size:24px;line-height:1.25;font-family:sans-serif;-inkscape-font-specification:'sans-serif, Normal';font-variant-ligatures:normal;font-variant-caps:normal;font-variant-numeric:normal;font-feature-settings:normal;text-align:start;letter-spacing:0px;word-spacing:0px;writing-mode:lr-tb;text-anchor:start;fill:#000000;fill-opacity:1;stroke:none"
       id="flowRoot5240">
      <path
         d="m 79.618489,64.455824 q 0,0.792968 -0.373698,1.567708 -0.364583,0.774739 -1.029948,1.3125 -0.729166,0.583333 -1.704427,0.911458 -0.966145,0.328125 -2.333333,0.328125 -1.467448,0 -2.643229,-0.273437 -1.166667,-0.273438 -2.378906,-0.811198 v -2.260417 h 0.127604 q 1.029948,0.856771 2.378906,1.321615 1.348958,0.464843 2.533854,0.464843 1.677084,0 2.606771,-0.628906 0.938802,-0.628906 0.938802,-1.677083 0,-0.902344 -0.446614,-1.330729 -0.4375,-0.428386 -1.339844,-0.665365 -0.683594,-0.182291 -1.485677,-0.300781 -0.792969,-0.11849 -1.686198,-0.300781 -1.804688,-0.382813 -2.679687,-1.303386 -0.865886,-0.929687 -0.865886,-2.415364 0,-1.704427 1.440104,-2.789063 1.440104,-1.09375 3.654948,-1.09375 1.43099,0 2.625,0.273438 1.19401,0.273437 2.114583,0.674479 v 2.132813 H 78.94401 q -0.77474,-0.65625 -2.041667,-1.084636 -1.257812,-0.4375 -2.579427,-0.4375 -1.449218,0 -2.333333,0.601563 -0.875,0.601562 -0.875,1.549479 0,0.847656 0.4375,1.330729 0.4375,0.483073 1.540365,0.738281 0.583333,0.127604 1.658854,0.309896 1.075521,0.182292 1.822916,0.373698 1.513021,0.401042 2.278646,1.212239 0.765625,0.811198 0.765625,2.269532 z"
         style="font-size:18.66666603px"
         id="path5260"
         inkscape:connector-curvature="0" />
      <path
         d="M 98.759114,56.362074 H 93.910155 V 68.329521 H 92.105468 V 56.362074 H 87.25651 v -1.604167 h 11.502604 z"
         style="font-size:18.66666603px"
         id="path5262"
         inkscape:connector-curvature="0" />
      <path
         d="m 116.76953,54.757907 -4.77604,7.619792 v 5.951822 h -1.80469 v -5.760416 l -4.79427,-7.811198 h 1.99609 l 3.70964,6.070313 3.74609,-6.070313 z"
         style="font-size:18.66666603px"
         id="path5264"
         inkscape:connector-curvature="0" />
      <path
         d="m 133.79557,68.329521 h -8.58593 V 54.757907 h 1.80468 v 11.967448 h 6.78125 z"
         style="font-size:18.66666603px"
         id="path5266"
         inkscape:connector-curvature="0" />
      <path
         d="m 146.94792,68.329521 h -5.35938 v -1.385416 h 1.77735 V 56.143324 h -1.77735 v -1.385417 h 5.35938 v 1.385417 h -1.77735 v 10.800781 h 1.77735 z"
         style="font-size:18.66666603px"
         id="path5268"
         inkscape:connector-curvature="0" />
      <path
         d="m 166.46224,64.455824 q 0,0.792968 -0.3737,1.567708 -0.36458,0.774739 -1.02995,1.3125 -0.72916,0.583333 -1.70442,0.911458 -0.96615,0.328125 -2.33334,0.328125 -1.46744,0 -2.64323,-0.273437 -1.16666,-0.273438 -2.3789,-0.811198 v -2.260417 h 0.1276 q 1.02995,0.856771 2.37891,1.321615 1.34896,0.464843 2.53385,0.464843 1.67709,0 2.60677,-0.628906 0.93881,-0.628906 0.93881,-1.677083 0,-0.902344 -0.44662,-1.330729 -0.4375,-0.428386 -1.33984,-0.665365 -0.6836,-0.182291 -1.48568,-0.300781 -0.79297,-0.11849 -1.6862,-0.300781 -1.80469,-0.382813 -2.67969,-1.303386 -0.86588,-0.929687 -0.86588,-2.415364 0,-1.704427 1.4401,-2.789063 1.44011,-1.09375 3.65495,-1.09375 1.43099,0 2.625,0.273438 1.19401,0.273437 2.11458,0.674479 v 2.132813 h -0.1276 q -0.77474,-0.65625 -2.04167,-1.084636 -1.25781,-0.4375 -2.57942,-0.4375 -1.44922,0 -2.33334,0.601563 -0.875,0.601562 -0.875,1.549479 0,0.847656 0.4375,1.330729 0.4375,0.483073 1.54037,0.738281 0.58333,0.127604 1.65885,0.309896 1.07552,0.182292 1.82292,0.373698 1.51302,0.401042 2.27864,1.212239 0.76563,0.811198 0.76563,2.269532 z"
         style="font-size:18.66666603px"
         id="path5270"
         inkscape:connector-curvature="0" />
      <path
         d="m 185.60286,56.362074 h -4.84896 v 11.967447 h -1.80468 V 56.362074 h -4.84896 v -1.604167 h 11.5026 z"
         style="font-size:18.66666603px"
         id="path5272"
         inkscape:connector-curvature="0" />
    </g>
    <g
       aria-label="ashion"
       transform="matrix(0.73586914,0,0,0.66365299,5.1976647,87.869933)"
       style="font-size:12.17765522px;font-family:'Dancing Script';text-anchor:middle;fill:#e0c4b1;stroke-width:0.25370115"
       id="ashion">
      <path
         d="m 17.449516,302.4534 q -0.335562,0 -0.562879,-0.22732 -0.238141,-0.21649 -0.238141,-0.67112 0,-0.38969 0.173194,-0.8335 0.173193,-0.45463 0.476281,-0.88761 0.303089,-0.44381 0.681949,-0.80102 0.389685,-0.36804 0.811844,-0.58453 0.432983,-0.21649 0.855142,-0.21649 0.422159,0 0.703598,0.22732 0.281439,0.21649 0.281439,0.58452 0,0.27062 -0.151544,0.36804 -0.14072,0.0974 -0.378861,0.0974 0.02165,-0.0866 0.03247,-0.18402 0.02165,-0.10824 0.02165,-0.19484 0,-0.24897 -0.11907,-0.42216 -0.11907,-0.18402 -0.411334,-0.18402 -0.303089,0 -0.617001,0.21649 -0.313913,0.20567 -0.606177,0.56288 -0.292264,0.34639 -0.51958,0.75772 -0.227316,0.41134 -0.357211,0.81185 -0.129895,0.40051 -0.129895,0.71442 0,0.42216 0.292263,0.42216 0.248966,0 0.54123,-0.22732 0.292263,-0.23814 0.595352,-0.59535 0.313913,-0.36804 0.595352,-0.75772 0.281439,-0.38969 0.497931,-0.71442 0.0433,-0.065 0.05412,-0.065 0.06495,0.0108 0.162369,0.0433 0.108246,0.0325 0.184018,0.0866 0.07577,0.0541 0.07577,0.14072 0,0.0974 -0.09742,0.27062 -0.09742,0.16237 -0.216492,0.37886 -0.11907,0.21649 -0.216491,0.44381 -0.09742,0.21649 -0.09742,0.41133 0,0.16237 0.0866,0.32474 0.0866,0.15154 0.281439,0.15154 0.292264,0 0.768546,-0.42216 0.476281,-0.43298 0.963387,-1.28812 l 0.108246,0.10824 q -0.227316,0.58453 -0.584527,1.02834 -0.357211,0.44381 -0.768546,0.69277 -0.400509,0.24897 -0.790194,0.24897 -0.40051,0 -0.595352,-0.23814 -0.184018,-0.23814 -0.184018,-0.51958 0,-0.065 0.01082,-0.14072 0.01083,-0.0866 0.02165,-0.1732 -0.465457,0.62783 -0.855142,0.94174 -0.378861,0.31392 -0.77937,0.31392 z"
         style="font-size:10.82458305px;line-height:1.25;stroke-width:0.25370115"
         id="path49"
         inkscape:connector-curvature="0" />
      <path
         d="m 24.219338,302.49669 q -0.508755,0 -0.811843,-0.22731 -0.292264,-0.21649 -0.411335,-0.54123 -0.129895,-0.32474 -0.129895,-0.64948 0,-0.32473 0.0866,-0.49793 0.0866,-0.17319 0.205667,-0.25979 0.129895,-0.0866 0.238141,-0.12989 0.11907,-0.0433 0.162369,-0.0866 0.324737,-0.35721 0.595352,-0.74689 0.270614,-0.38969 0.476282,-0.82267 v -0.1299 q 0,-0.40051 0.129895,-0.56288 0.140719,-0.17319 0.292263,-0.17319 0.0866,0 0.129895,0.0433 0.0433,0.0433 0.0433,0.0974 0,0.0541 -0.03247,0.17319 -0.03247,0.11907 -0.03247,0.30309 0,0.35721 0.14072,0.77937 0.140719,0.41134 0.281439,0.87679 0.140719,0.45464 0.140719,0.95257 0,0.14072 -0.02165,0.28144 -0.01082,0.12989 -0.0433,0.24896 0.37886,-0.0649 0.714422,-0.33556 0.335562,-0.28144 0.649475,-0.88762 l 0.09742,0.10825 q -0.205667,0.59535 -0.617002,0.90926 -0.411334,0.30309 -0.89844,0.37886 -0.173193,0.46546 -0.552054,0.68195 -0.368036,0.21649 -0.833493,0.21649 z m 0.02165,-0.37886 q 0.129895,0 0.346386,-0.0866 0.216492,-0.0866 0.335562,-0.44381 -0.454632,-0.0866 -0.811843,-0.35721 -0.346387,-0.27062 -0.51958,-0.54123 -0.238141,0.0108 -0.238141,0.37886 0,0.38968 0.227316,0.72525 0.238141,0.32473 0.6603,0.32473 z m 0.736071,-0.70359 q 0.02165,-0.10825 0.03247,-0.22732 0.01082,-0.11907 0.01082,-0.28144 0,-0.50875 -0.129895,-1.00669 -0.119071,-0.50875 -0.205668,-0.95256 -0.248965,0.41134 -0.530404,0.7902 -0.270615,0.36803 -0.51958,0.617 0.162369,0.34638 0.497931,0.64947 0.346386,0.30309 0.844317,0.41134 z"
         style="font-size:10.82458305px;line-height:1.25;stroke-width:0.25370115"
         id="path51"
         inkscape:connector-curvature="0" />
      <path
         d="m 28.771813,302.35598 q -0.205667,0 -0.324738,-0.34639 -0.11907,-0.34639 -0.11907,-0.77937 0,-0.51958 0.173193,-1.234 0.173193,-0.71443 0.454633,-1.50462 0.281439,-0.7902 0.627825,-1.54792 0.357212,-0.75772 0.725247,-1.37472 0.368036,-0.617 0.692774,-0.98504 0.324737,-0.36803 0.562878,-0.36803 0.194843,0 0.270615,0.23814 0.0866,0.22732 0.0866,0.44381 0,0.30309 -0.140719,0.73607 -0.129895,0.43298 -0.368036,0.93091 -0.238141,0.48711 -0.552054,0.96339 -0.313913,0.47628 -0.681949,0.87679 -0.368035,0.38969 -0.746896,0.617 -0.129895,0.31392 -0.227316,0.7036 -0.0866,0.38969 -0.129895,0.76855 -0.0433,0.36803 -0.0433,0.6603 0,0.11907 0,0.20566 0.01082,0.0866 0.02165,0.16237 0.151544,-0.44381 0.324737,-0.85514 0.184018,-0.42216 0.389685,-0.76855 0.205667,-0.35721 0.432984,-0.617 0.23814,-0.27061 0.49793,-0.41133 0.25979,-0.15154 0.552054,-0.15154 0.303089,0 0.476282,0.15154 0.184018,0.14072 0.25979,0.36804 0.0866,0.21649 0.0866,0.45463 0,0.33556 -0.119071,0.64947 -0.108246,0.31392 -0.227316,0.60618 -0.119071,0.29226 -0.119071,0.56288 0,0.21649 0.0866,0.31391 0.09742,0.0974 0.238141,0.0974 0.248965,0 0.552054,-0.23814 0.313913,-0.23814 0.617001,-0.62782 0.303088,-0.40051 0.51958,-0.86597 l 0.140719,0.12989 q -0.227316,0.53041 -0.552053,0.96339 -0.324738,0.42216 -0.714423,0.67113 -0.389685,0.24896 -0.811843,0.24896 -0.368036,0 -0.562879,-0.19484 -0.184018,-0.19484 -0.184018,-0.48711 0,-0.22731 0.0866,-0.50875 0.0866,-0.28144 0.162369,-0.57371 0.0866,-0.29226 0.0866,-0.55205 0,-0.28144 -0.11907,-0.40051 -0.11907,-0.11907 -0.292264,-0.11907 -0.270614,0 -0.487106,0.21649 -0.216492,0.21649 -0.40051,0.56288 -0.173193,0.33556 -0.335562,0.71442 -0.151544,0.37886 -0.292263,0.72525 -0.14072,0.33556 -0.28144,0.55205 -0.140719,0.2165 -0.292263,0.2165 z m 0.801019,-3.75614 q 0.303088,-0.23814 0.584527,-0.60617 0.292264,-0.36804 0.541229,-0.77937 0.248966,-0.42216 0.443808,-0.82267 0.194843,-0.40051 0.303089,-0.72525 0.108246,-0.32473 0.108246,-0.4871 0,-0.0541 -0.01083,-0.065 -0.01083,-0.0217 -0.03247,-0.0217 -0.07577,0 -0.313913,0.30309 -0.227316,0.29226 -0.530404,0.79019 -0.303089,0.49793 -0.595352,1.12576 -0.292264,0.62783 -0.497931,1.28812 z"
         style="font-size:10.82458305px;line-height:1.25;stroke-width:0.25370115"
         id="path53"
         inkscape:connector-curvature="0" />
      <path
         d="m 35.639226,302.22608 q -0.422159,0 -0.627826,-0.27061 -0.205667,-0.25979 -0.205667,-0.63865 0,-0.24897 0.0866,-0.62783 0.09742,-0.37886 0.248966,-0.7902 0.151544,-0.42215 0.346386,-0.79019 0.205667,-0.36804 0.432984,-0.59535 0.227316,-0.23814 0.443808,-0.23814 0.09742,0 0.162368,0.0649 0.07577,0.0541 0.07577,0.1732 0,0.12989 -0.173193,0.42216 -0.162369,0.29226 -0.389685,0.67112 -0.227316,0.37886 -0.400509,0.80102 -0.162369,0.41133 -0.162369,0.79019 0,0.38969 0.129895,0.51958 0.129895,0.1299 0.400509,0.1299 0.368036,0 0.77937,-0.36804 0.422159,-0.36803 0.887616,-1.28812 l 0.09742,0.10824 q -0.313912,0.93092 -0.909265,1.42885 -0.584527,0.49793 -1.223177,0.49793 z m 1.29895,-4.95766 q -0.173194,0 -0.313913,-0.0866 -0.129895,-0.0866 -0.129895,-0.27061 0,-0.22732 0.25979,-0.38968 0.270614,-0.1732 0.530404,-0.1732 0.162369,0 0.25979,0.0758 0.09742,0.0758 0.09742,0.25979 0,0.20567 -0.227316,0.40051 -0.216491,0.18402 -0.476281,0.18402 z"
         style="font-size:10.82458305px;line-height:1.25;stroke-width:0.25370115"
         id="path55"
         inkscape:connector-curvature="0" />
      <path
         d="m 39.645396,302.29103 q -0.465457,0 -0.6603,-0.29227 -0.194842,-0.28144 -0.194842,-0.69277 0,-0.33556 0.108246,-0.69277 0.108246,-0.35721 0.281439,-0.67113 0.184018,-0.31391 0.40051,-0.50875 0.227316,-0.19484 0.454632,-0.19484 0.05412,0 0.108246,0.0216 0.06495,0.0108 0.11907,0.0325 -0.09742,0.0866 -0.238141,0.32474 -0.129895,0.22731 -0.248965,0.5304 -0.11907,0.29226 -0.205667,0.58453 -0.07577,0.29226 -0.07577,0.49793 0,0.32474 0.108246,0.47628 0.108246,0.14072 0.281439,0.14072 0.227316,0 0.541229,-0.23814 0.313913,-0.24897 0.617001,-0.62783 -0.303088,-0.24896 -0.476281,-0.64947 -0.162369,-0.41134 -0.162369,-0.83349 0,-0.35722 0.11907,-0.67113 0.129895,-0.31391 0.368036,-0.49793 0.238141,-0.19484 0.573703,-0.19484 0.443808,0 0.595352,0.23814 0.151544,0.23814 0.151544,0.59535 0,0.42216 -0.205667,0.94174 -0.205667,0.50875 -0.51958,0.98504 0.194843,0.10824 0.411334,0.10824 0.173194,0 0.389685,-0.065 0.216492,-0.0758 0.422159,-0.24896 0.216492,-0.17319 0.346387,-0.46546 l 0.129895,0.10825 q -0.216492,0.50875 -0.617002,0.72525 -0.389685,0.20566 -0.746896,0.20566 -0.140719,0 -0.270614,-0.0217 -0.129895,-0.0325 -0.248966,-0.0866 -0.368036,0.4871 -0.811843,0.81184 -0.432984,0.32474 -0.844318,0.32474 z m 1.591214,-1.59122 q 0.270614,-0.40051 0.443808,-0.83349 0.184018,-0.44381 0.184018,-0.83349 0,-0.31391 -0.09742,-0.45463 -0.0866,-0.15155 -0.227316,-0.15155 -0.216492,0 -0.443808,0.31391 -0.227316,0.31392 -0.227316,0.7902 0,0.31391 0.0866,0.63865 0.09742,0.31391 0.281439,0.5304 z"
         style="font-size:10.82458305px;line-height:1.25;stroke-width:0.25370115"
         id="path57"
         inkscape:connector-curvature="0" />
      <path
         d="m 47.572351,302.16113 q -0.37886,0 -0.573702,-0.19484 -0.184018,-0.19484 -0.184018,-0.49793 0,-0.22732 0.07577,-0.47628 0.0866,-0.24897 0.162368,-0.50876 0.07577,-0.27061 0.07577,-0.51958 0,-0.30309 -0.129895,-0.41133 -0.119071,-0.11907 -0.303089,-0.11907 -0.335562,0 -0.681949,0.28144 -0.346386,0.27061 -0.671124,0.70359 -0.324737,0.42216 -0.606176,0.8768 -0.28144,0.45463 -0.497931,0.81184 -0.173193,0 -0.324738,-0.065 -0.162368,-0.0541 -0.248965,-0.17319 0,-0.0541 0.11907,-0.33556 0.108246,-0.28144 0.25979,-0.69278 0.151545,-0.41133 0.270615,-0.84431 0.11907,-0.43299 0.11907,-0.7902 0.06495,-0.0758 0.205667,-0.15154 0.14072,-0.0758 0.292264,-0.0758 0.292264,0 0.292264,0.28143 0,0.1732 -0.09742,0.58453 -0.09742,0.40051 -0.248966,0.84432 0.292264,-0.44381 0.649475,-0.87679 0.368036,-0.44381 0.77937,-0.73607 0.411334,-0.29227 0.822669,-0.29227 0.422158,0 0.606176,0.30309 0.194843,0.30309 0.194843,0.67113 0,0.33556 -0.108246,0.62782 -0.108246,0.28144 -0.227316,0.55205 -0.108246,0.25979 -0.108246,0.53041 0,0.22732 0.0866,0.32474 0.09742,0.0866 0.238141,0.0866 0.270615,0 0.541229,-0.24896 0.270615,-0.25979 0.51958,-0.64948 0.25979,-0.38968 0.454633,-0.79019 l 0.11907,0.14072 q -0.227316,0.5304 -0.508755,0.94174 -0.281439,0.41133 -0.617001,0.64947 -0.335562,0.23814 -0.746897,0.23814 z"
         style="font-size:10.82458305px;line-height:1.25;stroke-width:0.25370115"
         id="path59"
         inkscape:connector-curvature="0" />
    </g>
  </g>
</svg>
